<svg width="45" height="45" viewBox="0 0 45 45" fill="none" xmlns="http://www.w3.org/2000/svg">
<path d="M40.9255 18.3956V36.5116C40.9255 38.8557 39.9754 40.9782 38.4391 42.5146C36.9027 44.0509 34.7802 45.001 32.4361 45.001C31.849 45.001 31.276 44.9412 30.7223 44.8278C26.8551 44.0351 23.9468 40.6135 23.9468 36.5116V18.3956C23.9468 14.2937 26.8551 10.8722 30.7223 10.0794C31.276 9.96602 31.849 9.90625 32.4361 9.90625C37.1242 9.90625 40.9255 13.7066 40.9255 18.3956V18.3956Z" fill="#E1F9FF"/>
<path d="M40.9254 18.3956V36.5116C40.9254 38.8557 39.9753 40.9782 38.439 42.5146C36.9026 44.0509 34.7801 45.001 32.436 45.001C31.8489 45.001 31.2759 44.9412 30.7222 44.8278C34.5894 44.0351 37.4977 40.6135 37.4977 36.5116V18.3956C37.4977 14.2937 34.5894 10.8722 30.7222 10.0794C31.2759 9.96602 31.8489 9.90625 32.436 9.90625C37.1241 9.90625 40.9254 13.7066 40.9254 18.3956V18.3956Z" fill="#C2E8EF"/>
<path d="M40.9255 27.4531V36.5111C40.9255 38.8552 39.9754 40.9777 38.4391 42.5141C36.9027 44.0504 34.7802 45.0005 32.4361 45.0005C31.849 45.0005 31.276 44.9407 30.7223 44.8273C26.8551 44.0346 23.9468 40.613 23.9468 36.5111V27.4531H40.9255Z" fill="#FF6248"/>
<path d="M40.9254 27.4531V36.5111C40.9254 38.8552 39.9753 40.9777 38.439 42.5141C36.9026 44.0504 34.7801 45.0005 32.436 45.0005C31.8489 45.0005 31.2759 44.9407 30.7222 44.8273C34.5894 44.0346 37.4977 40.613 37.4977 36.5111V27.4531H40.9254Z" fill="#FF0000"/>
<path d="M27.7428 16.1278V40.695C27.7428 43.0725 25.8153 44.9999 23.4379 44.9999H8.37959C6.4293 44.9999 4.78135 43.7026 4.25312 41.9237C4.13711 41.5344 4.07471 41.1222 4.07471 40.695V16.1278C4.07471 15.4889 4.28125 14.8675 4.6627 14.3551L8.98252 8.58594L15.9092 6.82812L22.7532 8.58594L27.1557 14.3551C27.5371 14.8675 27.7428 15.4889 27.7428 16.1278V16.1278Z" fill="#E1F9FF"/>
<path d="M27.7426 16.1278V40.695C27.7426 43.0725 25.8151 44.9999 23.4377 44.9999H8.37939C6.4291 44.9999 4.78115 43.7026 4.25293 41.9237H19.9221C22.2995 41.9237 24.227 39.9963 24.227 37.6188V16.1278C24.227 15.4889 24.0213 14.8675 23.6398 14.3551L19.2374 8.58594H22.753L27.1555 14.3551C27.5369 14.8675 27.7426 15.4889 27.7426 16.1278V16.1278Z" fill="#C2E8EF"/>
<path d="M4.07471 18.1875H27.7428V38.7768H4.07471V18.1875Z" fill="#FF6248"/>
<path d="M27.7427 18.1875V38.7768H24.0688C24.1726 38.4076 24.227 38.0191 24.227 37.6184V18.1875H27.7427Z" fill="#FF0000"/>
<path d="M8.46959 0C7.3627 0 6.46533 0.897363 6.46533 2.00426V6.58169C6.46533 7.68858 7.3627 8.58595 8.46959 8.58595H23.3487C24.4556 8.58595 25.3529 7.68858 25.3529 6.58169V2.00426C25.3529 0.897363 24.4556 0 23.3487 0L8.46959 0Z" fill="#AAC2CC"/>
<path d="M15.9092 1.96094C15.545 1.96094 15.25 2.25607 15.25 2.62012V5.96251C15.25 6.32655 15.545 6.62169 15.9092 6.62169C16.2733 6.62169 16.5684 6.32655 16.5684 5.96251V2.62012C16.5684 2.25607 16.2732 1.96094 15.9092 1.96094V1.96094Z" fill="#86A0A8"/>
<path d="M9.05176 1.96094C8.68763 1.96094 8.39258 2.25607 8.39258 2.62012V5.96251C8.39258 6.32655 8.68763 6.62169 9.05176 6.62169C9.41589 6.62169 9.71094 6.32655 9.71094 5.96251V2.62012C9.71094 2.25607 9.41589 1.96094 9.05176 1.96094V1.96094Z" fill="#86A0A8"/>
<path d="M12.4805 1.96094C12.1163 1.96094 11.8213 2.25607 11.8213 2.62012V5.96251C11.8213 6.32655 12.1163 6.62169 12.4805 6.62169C12.8446 6.62169 13.1396 6.32655 13.1396 5.96251V2.62012C13.1396 2.25607 12.8446 1.96094 12.4805 1.96094V1.96094Z" fill="#86A0A8"/>
<path d="M19.3247 1.96094C18.9606 1.96094 18.6655 2.25607 18.6655 2.62012V5.96251C18.6655 6.32655 18.9606 6.62169 19.3247 6.62169C19.6888 6.62169 19.9839 6.32655 19.9839 5.96251V2.62012C19.9839 2.25607 19.6888 1.96094 19.3247 1.96094V1.96094Z" fill="#86A0A8"/>
<path d="M22.7534 1.96094C22.3893 1.96094 22.0942 2.25607 22.0942 2.62012V5.96251C22.0942 6.32655 22.3893 6.62169 22.7534 6.62169C23.1175 6.62169 23.4126 6.32655 23.4126 5.96251V2.62012C23.4126 2.25607 23.1175 1.96094 22.7534 1.96094V1.96094Z" fill="#86A0A8"/>
<path d="M20.2666 27.4922H17.4473V24.6729C17.4473 24.5515 17.3489 24.4531 17.2276 24.4531H14.5908C14.4695 24.4531 14.3711 24.5515 14.3711 24.6729V27.4922H11.5518C11.4304 27.4922 11.332 27.5906 11.332 27.7119V30.3487C11.332 30.47 11.4304 30.5684 11.5518 30.5684H14.3711V33.3877C14.3711 33.5091 14.4695 33.6075 14.5908 33.6075H17.2276C17.3489 33.6075 17.4473 33.5091 17.4473 33.3877V30.5684H20.2666C20.388 30.5684 20.4864 30.47 20.4864 30.3487V27.7119C20.4864 27.5906 20.388 27.4922 20.2666 27.4922Z" fill="#E1F9FF"/>
</svg>
