<svg width="45" height="45" viewBox="0 0 45 45" fill="none" xmlns="http://www.w3.org/2000/svg">
<g clip-path="url(#clip0_3_17527)">
<path d="M22.522 44.0352C34.4144 44.0352 44.0552 34.3944 44.0552 22.502C44.0552 10.6095 34.4144 0.96875 22.522 0.96875C10.6295 0.96875 0.98877 10.6095 0.98877 22.502C0.98877 34.3944 10.6295 44.0352 22.522 44.0352Z" fill="#FEC753"/>
<path d="M22.5 9.27344C11.6696 9.27344 2.60108 19.0406 0.262222 21.7909C-0.0874072 22.2021 -0.0874072 22.8056 0.262222 23.2168C2.60108 25.967 11.6696 35.7343 22.5 35.7343C33.3305 35.7343 42.399 25.9671 44.7379 23.2168C45.0875 22.8057 45.0875 22.2021 44.7379 21.791C42.399 19.0407 33.3305 9.27344 22.5 9.27344V9.27344Z" fill="#35528C"/>
<path d="M3.68854 22.5039C3.68854 20.367 12.1107 9.27344 22.5001 9.27344C11.7581 9.27344 2.74943 18.8818 0.321013 21.7222C-0.0640357 22.1725 -0.0640357 22.8351 0.321013 23.2856C2.74943 26.1259 11.7581 35.7343 22.5001 35.7343C12.1107 35.7343 3.68854 24.6408 3.68854 22.5039V22.5039Z" fill="#1F3A60"/>
<path d="M22.5 34.1016C28.9074 34.1016 34.1016 28.9074 34.1016 22.5C34.1016 16.0926 28.9074 10.8984 22.5 10.8984C16.0926 10.8984 10.8984 16.0926 10.8984 22.5C10.8984 28.9074 16.0926 34.1016 22.5 34.1016Z" fill="#99D3FF"/>
<path d="M15.4688 22.5C15.4688 16.8749 19.4723 12.1854 24.7852 11.124C24.0463 10.9763 23.2823 10.8984 22.5 10.8984C16.0926 10.8984 10.8984 16.0926 10.8984 22.5C10.8984 28.9074 16.0926 34.1016 22.5 34.1016C23.2823 34.1016 24.0463 34.0236 24.7852 33.876C19.4723 32.8146 15.4688 28.1251 15.4688 22.5Z" fill="#5BB3CE"/>
<path d="M22.3772 28.2662C25.5616 28.2662 28.1431 25.6847 28.1431 22.5003C28.1431 19.3159 25.5616 16.7344 22.3772 16.7344C19.1928 16.7344 16.6113 19.3159 16.6113 22.5003C16.6113 25.6847 19.1928 28.2662 22.3772 28.2662Z" fill="#1F3A60"/>
<path d="M27.0755 22.2867C28.4318 22.2867 29.5313 21.1872 29.5313 19.8308C29.5313 18.4745 28.4318 17.375 27.0755 17.375C25.7191 17.375 24.6196 18.4745 24.6196 19.8308C24.6196 21.1872 25.7191 22.2867 27.0755 22.2867Z" fill="#DCF3FF"/>
</g>
<defs>
<clipPath id="clip0_3_17527">
<rect width="45" height="45" fill="white"/>
</clipPath>
</defs>
</svg>
