<svg width="45" height="45" viewBox="0 0 45 45" fill="none" xmlns="http://www.w3.org/2000/svg">
<path d="M40.2539 15.4688H39.375V11.9531H23.9062V15.4688H23.0273C22.328 15.4688 21.6574 15.7465 21.1629 16.241C20.6684 16.7355 20.3906 17.4062 20.3906 18.1055V39.375C20.3906 40.3074 20.761 41.2016 21.4203 41.8609C22.0796 42.5202 22.9738 42.8906 23.9062 42.8906H39.375C40.3074 42.8906 41.2016 42.5202 41.8609 41.8609C42.5202 41.2016 42.8906 40.3074 42.8906 39.375V18.1055C42.8906 17.4062 42.6128 16.7355 42.1183 16.241C41.6239 15.7465 40.9532 15.4688 40.2539 15.4688Z" fill="#F7E1DB"/>
<path d="M20.3906 21.7969H42.8906V38.6719H20.3906V21.7969Z" fill="#FA5D3F"/>
<path d="M26.0156 25.3125H39.375V31.6406H26.0156V25.3125Z" fill="#FAC850"/>
<path d="M23.5547 2.10938H39.7266C40.1928 2.10938 40.6399 2.29457 40.9695 2.62423C41.2992 2.95388 41.4844 3.40099 41.4844 3.86719V11.0742C41.4844 11.3073 41.3918 11.5309 41.2269 11.6957C41.0621 11.8605 40.8386 11.9531 40.6055 11.9531H22.6758C22.4427 11.9531 22.2191 11.8605 22.0543 11.6957C21.8895 11.5309 21.7969 11.3073 21.7969 11.0742V3.86719C21.7969 3.40099 21.9821 2.95388 22.3117 2.62423C22.6414 2.29457 23.0885 2.10938 23.5547 2.10938V2.10938Z" fill="#FA5D3F"/>
<path d="M23.9062 4.21875H25.3125V9.84375H23.9062V4.21875Z" fill="#FAC850"/>
<path d="M26.7188 4.21875H28.125V9.84375H26.7188V4.21875Z" fill="#FAC850"/>
<path d="M29.5312 4.21875H30.9375V9.84375H29.5312V4.21875Z" fill="#FAC850"/>
<path d="M32.3438 4.21875H33.75V9.84375H32.3438V4.21875Z" fill="#FAC850"/>
<path d="M35.1562 4.21875H36.5625V9.84375H35.1562V4.21875Z" fill="#FAC850"/>
<path d="M37.9688 4.21875H39.375V9.84375H37.9688V4.21875Z" fill="#FAC850"/>
<path d="M26.0156 34.4531H30.2344V35.8594H26.0156V34.4531Z" fill="#FFF9F8"/>
<path d="M31.6406 34.4531H40.0781V35.8594H31.6406V34.4531Z" fill="#FFF9F8"/>
<path d="M14.7656 9.84375L16.0086 12.1164L18.2812 13.3594L16.0086 14.6023L14.7656 16.875L13.5227 14.6023L11.25 13.3594L13.5227 12.1164L14.7656 9.84375Z" fill="#9AE2F0"/>
<path d="M17.7539 20.3906H17.4023C14.0045 20.3906 11.25 23.1451 11.25 26.543V36.7383C11.25 40.1361 14.0045 42.8906 17.4023 42.8906H17.7539C21.1518 42.8906 23.9062 40.1361 23.9062 36.7383V26.543C23.9062 23.1451 21.1518 20.3906 17.7539 20.3906Z" fill="#79D8EB"/>
<path d="M16.1719 30.9375H23.9062V33.75H17.5781L16.1719 30.9375Z" fill="#FFF9F8"/>
<path d="M6.16113 6.14062L5.29102 7.73153L3.7002 8.60156L5.29102 9.47168L6.16113 11.0625L7.03116 9.47168L8.62207 8.60156L7.03116 7.73153L6.16113 6.14062Z" fill="#9AE2F0"/>
<path d="M9.84375 42.8906C14.1153 42.8906 17.5781 39.4278 17.5781 35.1562C17.5781 30.8847 14.1153 27.4219 9.84375 27.4219C5.57217 27.4219 2.10938 30.8847 2.10938 35.1562C2.10938 39.4278 5.57217 42.8906 9.84375 42.8906Z" fill="#FAC850"/>
<path d="M3.47119 30.77L14.2279 41.5267C15.0062 40.9902 15.6801 40.3162 16.2167 39.538L5.45994 28.7812C4.68168 29.3178 4.00775 29.9917 3.47119 30.77V30.77Z" fill="#F29A49"/>
</svg>
