<svg width="40" height="40" viewBox="0 0 40 40" fill="none" xmlns="http://www.w3.org/2000/svg">
<path d="M37.8941 30.4621L29.3588 34.7413C25.1518 36.8483 20.4037 37.6268 15.7441 36.9737L7.24367 35.7735L6.08398 35.6112V24.6405C6.08398 24.6405 6.53047 24.5245 7.24367 24.3737C8.58891 24.0955 10.8677 23.6896 12.9029 23.6954C14.5845 23.6954 15.9412 24.5187 15.9412 26.2408V26.9596H20.9218C22.2148 26.9596 23.2817 27.9453 23.4499 29.2209C23.4713 29.3395 23.481 29.4598 23.4789 29.5803V29.6093C23.481 30.0128 23.3596 30.4074 23.131 30.74C23.131 30.7458 23.1252 30.7458 23.1252 30.7515L33.3595 27.3595C34.9947 26.7912 36.9081 27.2377 37.8997 28.409L38.3173 28.908C38.7577 29.43 38.5667 30.1316 37.8941 30.4621V30.4621Z" fill="#FFD19C"/>
<path d="M37.8941 30.4584L29.3588 34.7377C25.1518 36.8446 20.4037 37.6231 15.7441 36.9701L7.24367 35.7698L6.08398 35.6075V34.4477L7.24367 34.6102L15.7441 35.8106C20.4037 36.4637 25.1518 35.6851 29.3588 33.5782L37.8941 29.299C38.0696 29.2168 38.2242 29.0959 38.3463 28.9453C38.7464 29.4612 38.5493 30.1338 37.8941 30.4584V30.4584Z" fill="#FFBC6E"/>
<path d="M7.82373 7.82031H26.9585V19.997H7.82373V7.82031Z" fill="#F47F31"/>
<path d="M24.6391 15.939L22.3198 15.3591L24.0593 17.6785H10.5837L12.3233 15.3591L10.0039 15.939V11.8801L12.3233 12.4599L10.5837 10.1406H24.0593L22.3198 12.4599L24.6391 11.8801V15.939Z" fill="#FFB17B"/>
<path d="M19.9953 13.0388H14.6496L13.9814 7.82031H20.6635L19.9953 13.0388Z" fill="#FFDDC7"/>
<path d="M19.2061 10.1406H20.3657L19.9946 13.0398H18.835L19.2061 10.1406Z" fill="#FFB17B"/>
<path d="M22.3198 15.3594L24.0594 17.6788H22.8997L21.1602 15.3594H22.3198Z" fill="#FF964D"/>
<path d="M22.3198 12.4599H21.1602L22.8997 10.1406H24.0594L22.3198 12.4599Z" fill="#FF964D"/>
<path d="M24.6392 11.8828V15.9417L23.4795 15.6518V12.1727L24.6392 11.8828Z" fill="#FF964D"/>
<path d="M20.6614 7.82031L19.9946 13.0388H18.835L19.5018 7.82031H20.6614Z" fill="#FFCAA8"/>
<path d="M1.44531 22.3203H4.92438C5.23194 22.3203 5.52691 22.4425 5.7444 22.66C5.96188 22.8775 6.08406 23.1724 6.08406 23.48V36.8163C6.08406 37.1239 5.96188 37.4189 5.7444 37.6364C5.52691 37.8538 5.23194 37.976 4.92438 37.976H1.44531V22.3203V22.3203Z" fill="#F54745"/>
<path d="M6.08402 23.48V36.8163C6.08312 37.1236 5.96064 37.4181 5.74336 37.6353C5.52607 37.8526 5.23163 37.9751 4.92434 37.976H3.76465C4.07194 37.9751 4.36638 37.8526 4.58367 37.6353C4.80096 37.4181 4.92343 37.1236 4.92434 36.8163V23.48C4.92345 23.1727 4.80098 22.8782 4.58369 22.661C4.3664 22.4437 4.07194 22.3212 3.76465 22.3203H4.92434C5.23163 22.3212 5.52609 22.4437 5.74338 22.661C5.96067 22.8782 6.08314 23.1727 6.08402 23.48V23.48Z" fill="#F31A18"/>
<path d="M23.4793 29.5783V29.6073C23.4814 30.0108 23.36 30.4054 23.1314 30.738C22.915 30.8027 22.6904 30.8359 22.4646 30.8366H15.1238C14.97 30.8366 14.8225 30.7755 14.7138 30.6667C14.605 30.558 14.5439 30.4105 14.5439 30.2567C14.5439 30.1029 14.605 29.9554 14.7138 29.8467C14.8225 29.738 14.97 29.6769 15.1238 29.6769H22.4646C22.6522 29.676 22.8374 29.6346 23.0075 29.5555C23.1776 29.4764 23.3287 29.3616 23.4504 29.2188C23.4717 29.3374 23.4814 29.4578 23.4793 29.5783V29.5783Z" fill="#FFB27C"/>
<path d="M29.5677 2.02344C29.2249 2.02297 28.8854 2.09014 28.5686 2.2211C28.2518 2.35207 27.964 2.54426 27.7216 2.78665C27.4792 3.02905 27.287 3.31689 27.156 3.63369C27.025 3.95049 26.9579 4.29001 26.9583 4.63282V7.82196H7.82373V4.92266C7.824 4.15383 8.12953 3.41657 8.67316 2.87293C9.2168 2.32928 9.95405 2.02373 10.7229 2.02344H29.5677Z" fill="#EB6A2F"/>
<path d="M32.1768 4.63281V7.82195H26.958V4.63281C26.958 3.94076 27.2329 3.27706 27.7223 2.78771C28.2116 2.29835 28.8753 2.02344 29.5674 2.02344C30.2594 2.02344 30.9231 2.29835 31.4125 2.78771C31.9018 3.27706 32.1768 3.94076 32.1768 4.63281V4.63281Z" fill="#E54E09"/>
<path d="M17.3213 11.5925C17.0156 11.5898 16.7228 11.4693 16.5036 11.2562C16.3194 11.051 16.1616 10.8125 16.1616 10.4329C16.1633 10.1259 16.2862 9.83201 16.5036 9.6152C16.9328 9.18035 17.7154 9.18035 18.139 9.6152C18.2473 9.72259 18.3333 9.85037 18.3919 9.99116C18.4506 10.132 18.4808 10.283 18.4808 10.4355C18.4808 10.588 18.4506 10.7391 18.3919 10.8799C18.3333 11.0206 18.2473 11.1484 18.139 11.2558C17.9214 11.4713 17.6276 11.5923 17.3213 11.5925V11.5925Z" fill="#FFB957"/>
<path d="M18.4811 10.4359C18.4814 10.5889 18.4513 10.7405 18.3925 10.8818C18.3338 11.0231 18.2476 11.1514 18.139 11.2592C17.921 11.4739 17.6275 11.5945 17.3215 11.5952C17.0993 11.5977 16.8813 11.5348 16.6947 11.4142C16.508 11.2937 16.361 11.1208 16.272 10.9173C16.4208 10.98 16.5802 11.0134 16.7417 11.0159C17.0476 11.0152 17.3411 10.8946 17.5592 10.6799C17.6678 10.5721 17.754 10.4438 17.8127 10.3025C17.8714 10.1612 17.9015 10.0096 17.9013 9.85656C17.8996 9.69936 17.8682 9.5439 17.8085 9.39844C17.9338 9.4462 18.0467 9.52149 18.139 9.61875C18.2477 9.72523 18.3339 9.85238 18.3927 9.99271C18.4514 10.133 18.4815 10.2837 18.4811 10.4359Z" fill="#FFAC38"/>
<path d="M26.9585 7.82031H32.1771V19.997H26.9585V7.82031Z" fill="#EB6A2F"/>
</svg>
