<svg width="45" height="45" viewBox="0 0 45 45" fill="none" xmlns="http://www.w3.org/2000/svg">
<g clip-path="url(#clip0_3_17637)">
<path d="M32.3761 39.8442C30.1826 43.0776 26.5977 45.0782 22.3164 44.9995C13.2648 44.7953 7.83478 34.8252 12.4161 27.0156L21.212 12.0231C21.6367 11.2977 22.484 11.0632 23.182 11.3186C23.517 11.4405 23.8175 11.675 24.0217 12.0231L32.8176 27.0156C35.3297 31.2972 34.8316 36.229 32.3761 39.8442Z" fill="#F44545"/>
<path d="M44.0621 13.5939C43.0572 15.9041 40.8284 17.4982 38.0028 17.4285C33.1634 17.2774 30.2911 11.9353 32.7411 7.75881L36.8211 0.803789C37.2462 0.0793792 38.0935 -0.15614 38.7911 0.100322C39.1265 0.221171 39.4276 0.45566 39.6312 0.803789L43.7113 7.75881C44.8277 9.66184 44.8387 11.8079 44.0621 13.5939V13.5939Z" fill="#F44545"/>
<path d="M11.3729 20.4644C10.5839 22.5854 8.60538 24.1561 6.08642 24.1561C1.65963 24.1561 -0.965411 19.3311 1.22876 15.5909L4.84188 9.4317C5.24872 8.73853 6.08848 8.55074 6.72947 8.86865C6.96842 8.98573 7.17922 9.17455 7.33028 9.4317L10.9434 15.5909C11.8721 17.1736 11.937 18.9448 11.3729 20.4644Z" fill="#F44545"/>
<path d="M32.3764 39.8459C30.692 40.8852 28.6984 41.5162 26.4894 41.5666C17.1397 41.8241 11.2844 31.601 15.9879 23.5827L23.1822 11.3203C23.5173 11.4422 23.8177 11.6767 24.022 12.0248L32.8179 27.0173C35.33 31.2989 34.8318 36.2307 32.3764 39.8459V39.8459Z" fill="#FB5858"/>
<path d="M44.0619 13.5952C43.4337 13.8324 42.7494 13.9725 42.0202 13.9951C41.9471 13.9972 41.8719 13.9989 41.7977 13.9989C41.7225 13.9989 41.6484 13.9972 41.5742 13.9951C36.7351 13.8441 33.8618 8.50197 36.3128 4.32648L38.7909 0.101562C39.1263 0.222412 39.4274 0.456901 39.631 0.805029L43.7111 7.76005C44.8276 9.66308 44.8385 11.8092 44.0619 13.5952Z" fill="#FB5858"/>
<path d="M11.3729 20.4629C10.8984 20.6122 10.3903 20.7008 9.85537 20.7173C9.79014 20.7194 9.72422 20.7204 9.65762 20.7204C9.5917 20.7204 9.52544 20.7194 9.46055 20.7173C5.17521 20.5837 2.63085 15.8534 4.80064 12.1552L6.72942 8.86719C6.96838 8.98426 7.17918 9.17309 7.33024 9.43024L10.9434 15.5894C11.872 17.1721 11.9369 18.9433 11.3729 20.4629Z" fill="#FB5858"/>
</g>
<defs>
<clipPath id="clip0_3_17637">
<rect width="45" height="45" fill="white"/>
</clipPath>
</defs>
</svg>
