<svg width="45" height="45" viewBox="0 0 45 45" fill="none" xmlns="http://www.w3.org/2000/svg">
<g clip-path="url(#clip0_3_17488)">
<path d="M13.1919 6.22931L16.2947 5.45312L16.6713 6.95852L13.5681 7.7347L13.1919 6.22931Z" fill="#B5554E"/>
<path d="M14.687 3.83925L15.1776 2.36719L17.505 3.14299L17.014 4.61467L14.687 3.83925Z" fill="#B5554E"/>
<path d="M14.7432 26.3566L15.1197 24.8516L18.2225 25.6274L17.8464 27.1324L14.7432 26.3566Z" fill="#B5554E"/>
<path d="M14.7437 28.7293L17.8465 27.9531L18.223 29.4585L15.1202 30.2347L14.7437 28.7293Z" fill="#B5554E"/>
<path d="M38.0178 19.3986L27.1565 13.9679C29.4839 12.5546 31.1628 10.4154 31.028 7.427C30.8397 3.21652 27.3243 -0.07345 23.1104 0.0174646C18.8966 0.108379 15.5263 3.54684 15.5195 7.76149C15.5195 10.5753 17.1567 12.608 19.3985 13.9679L8.53722 19.3986C7.32238 19.905 6.66211 21.2256 6.98561 22.5018C7.15229 23.1457 7.58906 23.6863 8.18417 23.9841C8.77928 24.2814 9.47402 24.3068 10.0888 24.0534L17.0711 20.9502V42.5409C17.0434 43.8125 18.0067 44.888 19.2739 45.0001C19.9125 45.0346 20.5368 44.8046 21.0008 44.3641C21.4645 43.9239 21.727 43.3121 21.7259 42.6727V31.1186C21.7088 30.339 22.2528 29.6594 23.0169 29.5048C23.4677 29.4279 23.9294 29.5541 24.2787 29.8492C24.6283 30.1443 24.8295 30.5784 24.8291 31.0356V38.0179H29.4839V20.9502L36.4662 24.0534C37.0814 24.3068 37.7761 24.2814 38.3712 23.9841C38.9659 23.6863 39.4031 23.1457 39.5694 22.5018C39.8933 21.2256 39.233 19.905 38.0178 19.3986V19.3986Z" fill="#DD9C66"/>
<path d="M23.4152 15.4317C21.9476 15.4351 20.4907 15.1817 19.1104 14.6839L19.6858 13.2422C22.0098 14.0619 24.5444 14.0619 26.8684 13.2422L27.4453 14.6839C26.1619 15.187 24.794 15.4408 23.4152 15.4317Z" fill="#B5554E"/>
<path d="M20.1885 16.1368L20.965 12.2578L22.4867 12.5624L21.7102 16.4414L20.1885 16.1368Z" fill="#B5554E"/>
<path d="M23.333 12.7015L24.7744 12.125L26.3256 16.004L24.8846 16.5806L23.333 12.7015Z" fill="#B5554E"/>
<path d="M16.2954 14.7422H17.847V20.9486H16.2954V14.7422Z" fill="#B5554E"/>
<path d="M14.3975 18.7024L19.0519 16.375L19.7459 17.7626L15.0911 20.09L14.3975 18.7024Z" fill="#B5554E"/>
<path d="M28.708 14.7422H30.2596V20.9486H28.708V14.7422Z" fill="#B5554E"/>
<path d="M27.1567 17.8438H31.8116V19.3954H27.1567V17.8438Z" fill="#B5554E"/>
<path d="M22.502 20.9453H24.0536V29.4792H22.502V20.9453Z" fill="#B5554E"/>
<path d="M20.9502 25.6016H25.605V27.1532H20.9502V25.6016Z" fill="#B5554E"/>
<path d="M20.9502 22.5H25.605V24.0516H20.9502V22.5Z" fill="#B5554E"/>
<path d="M24.8291 33.3594H29.4839V38.0142H24.8291V33.3594Z" fill="#643884"/>
<path d="M17.0708 36.4609H21.7256V41.1158H17.0708V36.4609Z" fill="#643884"/>
<path d="M18.968 10.0106L18.2759 8.62112C18.4801 8.5196 23.3341 6.15014 28.2791 8.62112L27.5855 10.0098C23.3489 7.88813 19.0104 9.98522 18.968 10.0106V10.0106Z" fill="#B5554E"/>
<path d="M19.4209 7.17341L20.9263 6.79688L21.7021 9.90009L20.1967 10.2763L19.4209 7.17341Z" fill="#B5554E"/>
<path d="M22.5166 9.93371L23.2932 6.05469L24.8145 6.35925L24.0379 10.2383L22.5166 9.93371Z" fill="#B5554E"/>
<path d="M25.6045 6.98438H27.1561V10.8634H25.6045V6.98438Z" fill="#B5554E"/>
<path d="M24.0532 3.10156H25.6048V4.65317H24.0532V3.10156Z" fill="#394D5C"/>
<path d="M27.7695 4.67003L38.6312 2.34375L38.9562 3.86089L28.0946 6.18716L27.7695 4.67003Z" fill="#AABECE"/>
<path d="M42.6724 2.32741C42.6724 3.61272 41.6307 4.65483 40.345 4.65483C39.0597 4.65483 38.0176 3.61272 38.0176 2.32741C38.0176 1.04211 39.0597 0 40.345 0C41.6307 0 42.6724 1.04211 42.6724 2.32741Z" fill="#8D28AD"/>
<path d="M4.78809 11.2903L6.07907 10.4297L12.2855 19.7393L10.9945 20.6L4.78809 11.2903Z" fill="#AABECE"/>
<path d="M6.98539 9.31179C6.98539 10.5971 5.94366 11.6392 4.65798 11.6392C3.37267 11.6392 2.33057 10.5971 2.33057 9.31179C2.33057 8.02648 3.37267 6.98438 4.65798 6.98438C5.94366 6.98438 6.98539 8.02648 6.98539 9.31179Z" fill="#8D28AD"/>
<path d="M24.0991 39.9622L24.8753 36.8594L26.3807 37.2355L25.6045 40.3388L24.0991 39.9622Z" fill="#B5554E"/>
<path d="M26.3804 38.0156H27.932V41.8946H26.3804V38.0156Z" fill="#B5554E"/>
<path d="M27.9321 37.2406L29.4042 36.75L30.1796 39.077L28.7079 39.568L27.9321 37.2406Z" fill="#B5554E"/>
<path d="M26.9688 25.5753L27.3449 24.0703L39.7574 27.1732L39.3812 28.6785L26.9688 25.5753Z" fill="#AABECE"/>
<path d="M42.6726 27.9266C42.6726 28.7835 41.9782 29.4782 41.1209 29.4782C40.2641 29.4782 39.5693 28.7835 39.5693 27.9266C39.5693 27.0697 40.2641 26.375 41.1209 26.375C41.9782 26.375 42.6726 27.0697 42.6726 27.9266Z" fill="#8D28AD"/>
<path d="M7.60303 33.3966L19.245 31.0703L19.5492 32.5924L7.90721 34.9186L7.60303 33.3966Z" fill="#AABECE"/>
<path d="M8.53681 34.1375C8.53681 34.9944 7.84245 35.6892 6.9852 35.6892C6.12833 35.6892 5.43359 34.9944 5.43359 34.1375C5.43359 33.2807 6.12833 32.5859 6.9852 32.5859C7.84245 32.5859 8.53681 33.2807 8.53681 34.1375Z" fill="#8D28AD"/>
<path d="M16.8926 3.36667C17.8423 4.69668 19.6628 5.05806 21.0478 4.19097C22.4331 3.32425 22.9043 1.52906 22.1232 0.09375C20.0015 0.412709 18.107 1.59801 16.8926 3.36667Z" fill="#DD3E46"/>
<path d="M32.7168 17.7575L34.2688 15.4297L35.5598 16.2903L34.0082 18.6181L32.7168 17.7575Z" fill="#B5554E"/>
<path d="M35.0449 19.3118L36.5965 16.9844L37.8875 17.845L36.3359 20.1728L35.0449 19.3118Z" fill="#B5554E"/>
<path d="M30.0146 10.8232L30.5052 9.35156L32.8326 10.127L32.3417 11.599L30.0146 10.8232Z" fill="#B5554E"/>
</g>
<defs>
<clipPath id="clip0_3_17488">
<rect width="45" height="45" fill="white"/>
</clipPath>
</defs>
</svg>
