<svg width="45" height="45" viewBox="0 0 45 45" fill="none" xmlns="http://www.w3.org/2000/svg">
<g clip-path="url(#clip0_3_17591)">
<path d="M26.3132 24.4035C28.5441 25.3552 30.9359 25.8729 33.3607 25.9289C35.8547 25.9289 38.6615 26.7679 42.498 25.3416L39.7217 33.2738C38.8018 35.9038 36.6351 37.9047 33.9403 38.6128V41.9458H31.6522L30.1268 38.895H16.398L14.8725 41.9458H12.5844V38.567C9.8893 37.796 7.75735 35.7298 6.90219 33.0602L2.89795 20.5365C2.92149 20.5351 2.94466 20.53 2.96659 20.5213C4.25558 20.0713 9.12168 17.4094 17.9005 20.9255C18.1674 21.0323 18.4268 21.1391 18.6861 21.2382L26.3132 24.4035Z" fill="#3B97D3"/>
<path d="M18.6863 18.5151V22.6871C18.427 22.5879 18.1677 22.4812 17.9007 22.3744C9.12191 18.8583 4.25581 20.071 2.96682 20.521C2.9449 20.5297 2.92173 20.5348 2.89818 20.5362C1.89197 20.8444 0.823741 20.293 0.492201 19.2942C0.160661 18.2955 0.68707 17.2147 1.67784 16.86C3.6914 16.1506 9.32021 14.9227 18.6863 18.5151Z" fill="#F9EAB0"/>
<path d="M43.383 25.0123C43.0855 25.1267 42.7881 25.2411 42.4982 25.3403V25.3479C38.6618 26.7742 35.855 27.3844 33.3609 27.3844C30.9362 27.3283 28.5444 26.8106 26.3135 25.8589V21.6793C31.9652 23.9979 34.4058 24.3335 41.9796 21.3971C42.6254 21.1464 43.3559 21.2593 43.8959 21.6932C44.4359 22.1271 44.7034 22.8162 44.5976 23.5008C44.4918 24.1854 44.0288 24.7616 43.383 25.0123V25.0123Z" fill="#F9EAB0"/>
<path d="M9.80782 32.8939C9.47528 32.8933 9.18149 32.6772 9.08172 32.36L6.36723 23.8733C6.26165 23.6085 6.31258 23.3069 6.49927 23.0914C6.68596 22.8759 6.97724 22.7826 7.2544 22.8494C7.53157 22.9162 7.74834 23.132 7.81638 23.4088L10.5316 31.8986C10.6599 32.2998 10.4386 32.729 10.0374 32.8573C9.96324 32.8813 9.88579 32.8937 9.80782 32.8939V32.8939Z" fill="white"/>
<path d="M29.3643 17.543C30.2068 17.543 30.8897 16.8601 30.8897 16.0176C30.8897 15.1751 30.2068 14.4922 29.3643 14.4922C28.5218 14.4922 27.8389 15.1751 27.8389 16.0176C27.8389 16.8601 28.5218 17.543 29.3643 17.543Z" fill="#84B5CB"/>
<path d="M33.5591 7.62805C35.0335 7.62805 36.2286 6.43287 36.2286 4.95855C36.2286 3.48423 35.0335 2.28906 33.5591 2.28906C32.0848 2.28906 30.8896 3.48423 30.8896 4.95855C30.8896 6.43287 32.0848 7.62805 33.5591 7.62805Z" fill="#84B5CB"/>
<path d="M35.0845 14.4932C36.1376 14.4932 36.9913 13.6396 36.9913 12.5865C36.9913 11.5334 36.1376 10.6797 35.0845 10.6797C34.0314 10.6797 33.1777 11.5334 33.1777 12.5865C33.1777 13.6396 34.0314 14.4932 35.0845 14.4932Z" fill="#84B5CB"/>
<path d="M10.6778 13.7289C10.4915 13.7289 10.3116 13.6608 10.1721 13.5374C9.32074 12.9381 8.80156 11.9727 8.771 10.932C8.80191 9.8916 9.32104 8.92654 10.1721 8.32733C10.7579 7.79953 11.0591 7.49902 11.0591 6.85529C11.0591 6.21156 10.754 5.91716 10.1721 5.40614C9.32014 4.80564 8.80097 3.83879 8.771 2.7969C8.80156 1.75622 9.32074 0.790773 10.1721 0.19148C10.3765 0.0108185 10.6617 -0.0470904 10.9203 0.0395668C11.179 0.126224 11.3717 0.344282 11.426 0.611601C11.4803 0.878919 11.3878 1.15489 11.1835 1.33555C10.6168 1.83512 10.2964 2.15012 10.2964 2.7969C10.2964 3.44368 10.6168 3.75792 11.1835 4.25979C12.0377 4.85202 12.5581 5.8162 12.5846 6.85529C12.5586 7.88927 12.0463 8.85039 11.2025 9.44851C10.6168 9.97097 10.2964 10.286 10.2964 10.932C10.2964 11.578 10.6168 11.8938 11.1835 12.3949C11.4209 12.6049 11.5037 12.94 11.3913 13.2365C11.2789 13.533 10.9948 13.729 10.6778 13.7289V13.7289Z" fill="#FF5364"/>
<path d="M15.2539 13.7289C15.0677 13.7289 14.8878 13.6608 14.7483 13.5374C13.8969 12.9381 13.3777 11.9727 13.3472 10.932C13.3781 9.8916 13.8972 8.92654 14.7483 8.32733C15.334 7.79953 15.6353 7.49902 15.6353 6.85529C15.6353 6.21156 15.3302 5.91716 14.7483 5.40614C13.8963 4.80564 13.3771 3.83879 13.3472 2.7969C13.3777 1.75622 13.8969 0.790773 14.7483 0.19148C14.9526 0.0108185 15.2379 -0.0470904 15.4965 0.0395668C15.7551 0.126224 15.9479 0.344282 16.0022 0.611601C16.0565 0.878919 15.964 1.15489 15.7596 1.33555C15.1929 1.83512 14.8726 2.15012 14.8726 2.7969C14.8726 3.44368 15.1929 3.75792 15.7596 4.25979C16.6138 4.85202 17.1343 5.8162 17.1607 6.85529C17.1347 7.88927 16.6225 8.85039 15.7787 9.44851C15.1929 9.97097 14.8726 10.286 14.8726 10.932C14.8726 11.578 15.1929 11.8938 15.7596 12.3949C15.9971 12.6049 16.0798 12.94 15.9675 13.2365C15.8551 13.533 15.571 13.729 15.2539 13.7289Z" fill="#FF5364"/>
<path d="M19.8306 13.7289C19.6443 13.7289 19.4645 13.6608 19.3249 13.5374C18.4736 12.9381 17.9544 11.9727 17.9238 10.932C17.9547 9.8916 18.4739 8.92654 19.3249 8.32733C19.9107 7.79953 20.212 7.49902 20.212 6.85529C20.212 6.21156 19.9069 5.91716 19.3249 5.40614C18.473 4.80564 17.9538 3.83879 17.9238 2.7969C17.9544 1.75622 18.4736 0.790773 19.3249 0.19148C19.5293 0.0108185 19.8145 -0.0470904 20.0732 0.0395668C20.3318 0.126224 20.5246 0.344282 20.5788 0.611601C20.6331 0.878919 20.5407 1.15489 20.3363 1.33555C19.7696 1.83512 19.4493 2.15012 19.4493 2.7969C19.4493 3.44368 19.7696 3.75792 20.3363 4.25979C21.1905 4.85202 21.711 5.8162 21.7374 6.85529C21.7114 7.88927 21.1992 8.85039 20.3554 9.44851C19.7696 9.97097 19.4493 10.286 19.4493 10.932C19.4493 11.578 19.7696 11.8938 20.3363 12.3949C20.5738 12.6049 20.6565 12.94 20.5441 13.2365C20.4317 13.533 20.1477 13.729 19.8306 13.7289Z" fill="#FF5364"/>
<path d="M26.3137 20.4474L26.3137 28.9821H18.6865L18.6865 17.9228C18.6853 17.6678 18.8115 17.429 19.023 17.2865C19.2345 17.144 19.5032 17.1166 19.7391 17.2135L25.8408 19.738C26.1282 19.8561 26.3152 20.1367 26.3137 20.4474V20.4474Z" fill="#F0C419"/>
<path d="M26.3136 28.9844V31.2725C26.3111 32.1139 25.6296 32.7954 24.7882 32.7979H20.2119C19.3705 32.7954 18.689 32.1139 18.6865 31.2725V28.9844H26.3136Z" fill="#F3D55B"/>
<path d="M17.1608 43.4707C17.1545 44.3106 16.4752 44.9899 15.6354 44.9962H12.5845C11.7431 44.9936 11.0616 44.3122 11.0591 43.4707C11.0653 42.6309 11.7446 41.9515 12.5845 41.9453H15.6354C16.4768 41.9478 17.1583 42.6293 17.1608 43.4707Z" fill="#2980BA"/>
<path d="M35.466 43.4707C35.4597 44.3106 34.7804 44.9899 33.9405 44.9962H30.8897C30.0483 44.9936 29.3668 44.3122 29.3643 43.4707C29.3705 42.6309 30.0498 41.9515 30.8897 41.9453H33.9405C34.782 41.9478 35.4634 42.6293 35.466 43.4707Z" fill="#2980BA"/>
</g>
<defs>
<clipPath id="clip0_3_17591">
<rect width="45" height="45" fill="white"/>
</clipPath>
</defs>
</svg>
