<svg width="40" height="40" viewBox="0 0 40 40" fill="none" xmlns="http://www.w3.org/2000/svg">
<path d="M29.1797 12.8011C28.3461 11.891 27.0502 10.6626 26.4989 13.4362C26.3114 14.3793 25.8733 15.1062 25.4979 15.6916C25.0933 13.6437 23.876 11.5241 22.729 10.095C22.2997 9.56031 20.7768 7.43476 20.4842 3.87882C20.4405 3.34812 19.8101 3.0989 19.4158 3.45687C15.6477 6.87749 13.5794 11.582 13.5026 16.8784C13.5026 16.8784 11.9336 15.5558 11.0811 13.0953C10.8516 12.4327 9.96334 12.3063 9.57794 12.8922C9.50396 13.0047 9.43537 13.1173 9.37349 13.2267C6.46623 18.3673 5.06771 24.6099 6.3606 30.4177C8.52232 40.1441 22.8219 42.8633 30.3921 36.7501C37.7987 30.7691 35.4444 19.6372 29.1797 12.8011Z" fill="#ED694A"/>
<path d="M8.37271 31.0264C7.09482 25.1565 8.44748 18.8531 11.2865 13.6321C11.2147 13.4588 11.1456 13.2797 11.0811 13.0935C10.8515 12.4309 9.96326 12.3045 9.57787 12.8903C9.50388 13.0028 9.43537 13.1155 9.37349 13.2249C6.46623 18.3655 5.06771 24.6081 6.3606 30.4159C7.34662 34.8523 10.8582 37.8299 15.1043 39.1775C11.7918 37.5729 9.19779 34.8222 8.37271 31.0264Z" fill="#D8553A"/>
<path d="M15.5246 16.7804C15.6815 11.9736 17.4201 7.66344 20.5318 4.35235C20.5104 4.17001 20.4946 4.00696 20.4843 3.88321C20.4397 3.34797 19.8324 3.07954 19.4398 3.43438C15.8003 6.72485 13.5821 11.3818 13.5024 16.8777L14.1836 17.4067C14.5191 17.6673 14.9736 17.6559 15.294 17.4173C15.4852 17.2552 15.5126 17.0107 15.5246 16.7804Z" fill="#D8553A"/>
<path d="M26.8939 19.9086C26.2782 19.2364 25.321 18.3291 24.9138 20.3778C24.7754 21.0743 24.4517 21.6113 24.1746 22.0436C23.8757 20.5311 22.9765 18.9654 22.1293 17.9099C21.8123 17.515 20.6875 15.945 20.4713 13.3184C20.439 12.9264 19.9735 12.7424 19.6822 13.0068C16.899 15.5332 15.3713 19.0082 15.3147 22.9201C15.3147 22.9201 14.1557 21.9432 13.5261 20.1259C13.3566 19.6365 12.7004 19.5432 12.4158 19.9759C12.3612 20.0589 12.3105 20.1422 12.2648 20.223C10.1174 24.02 9.08442 28.6308 10.0393 32.9207C11.6361 40.1047 22.1979 42.1132 27.7895 37.5979C33.2601 33.1803 31.5211 24.958 26.8939 19.9086Z" fill="#F4A32C"/>
<path d="M12.0308 33.4803C11.1854 29.2869 12.0611 24.7873 13.9177 21.0404C13.7762 20.7634 13.6422 20.4571 13.5261 20.1221C13.3565 19.6328 12.7004 19.5393 12.4157 19.9721C12.3611 20.0551 12.3104 20.1384 12.2647 20.2192C10.1174 24.0162 9.0845 28.6271 10.0393 32.9168C10.7819 36.2581 13.464 38.479 16.6831 39.4455C14.396 38.2985 12.5952 36.2834 12.0308 33.4803Z" fill="#E89528"/>
<path d="M24.8072 26.3967C24.3904 25.9417 23.7423 25.3274 23.4667 26.7143C23.373 27.1858 23.1539 27.5493 22.9662 27.8419C22.7639 26.8179 22.1553 25.7582 21.5817 25.0436C21.3672 24.7763 20.6057 23.7136 20.4593 21.9355C20.4374 21.6701 20.1223 21.5455 19.9251 21.7246C18.0411 23.4349 17.0069 25.7872 16.9686 28.4353C16.9686 28.4353 16.184 27.774 15.7579 26.5438C15.6431 26.2125 15.199 26.1493 15.0063 26.4422C14.9693 26.4984 14.9351 26.5548 14.904 26.6095C13.4504 29.1798 12.7512 32.3011 13.3976 35.205C14.4784 40.0683 21.6282 41.4279 25.4133 38.3712C26.7094 37.3245 27.5131 35.8496 27.6761 34.2181C27.9221 31.747 26.9711 28.758 24.8072 26.3967Z" fill="#F4D44E"/>
<path d="M22.8711 32.4232C22.6389 32.1697 22.2779 31.8275 22.1243 32.6001C22.0721 32.8628 21.9501 33.0653 21.8455 33.2283C21.7327 32.6579 21.3937 32.0674 21.0741 31.6694C20.9546 31.5204 20.5303 30.9283 20.4487 29.9377C20.4366 29.7898 20.2609 29.7205 20.1512 29.8201C19.1016 30.773 18.5253 32.0836 18.504 33.5589C18.504 33.5589 18.0669 33.1904 17.8295 32.5051C17.7655 32.3204 17.518 32.2852 17.4108 32.4485C17.3902 32.4798 17.3711 32.5112 17.3539 32.5417C16.5441 33.9737 16.1545 35.7126 16.5146 37.3305C17.3348 41.0204 24.0573 40.9086 24.4696 36.7806C24.6065 35.404 24.0766 33.7387 22.8711 32.4232Z" fill="#EAE9E8"/>
<path d="M18.0755 38.0627C17.7153 36.6154 18.1049 35.0599 18.9148 33.779C18.932 33.7517 18.9511 33.7237 18.9716 33.6956C19.079 33.5496 19.3264 33.5811 19.3903 33.7462C19.6277 34.3593 20.0648 34.6889 20.0648 34.6889C20.0824 33.6045 20.4752 32.6201 21.1967 31.8306C21.0354 31.6072 20.5418 31.0684 20.4487 29.9377C20.4366 29.7898 20.2609 29.7205 20.1512 29.8201C19.1016 30.773 18.5253 32.0836 18.504 33.5589C18.504 33.5589 18.0669 33.1905 17.8295 32.5051C17.7655 32.3205 17.518 32.2853 17.4108 32.4486C17.3902 32.4799 17.3711 32.5113 17.3539 32.5418C16.5441 33.9737 16.1545 35.7127 16.5146 37.3306C16.8479 38.8302 18.2171 39.7315 19.7309 39.949C18.9143 39.548 18.2867 38.9129 18.0755 38.0627Z" fill="#F7E7A1"/>
<path d="M14.422 5.31602C16.1114 3.94187 16.1077 1.37102 14.422 0C12.7325 1.37406 12.7362 3.945 14.422 5.31602Z" fill="#D8553A"/>
<path d="M34.6714 16.3473C36.3608 14.9731 36.3571 12.4023 34.6714 11.0312C33.8992 11.6592 32.9856 14.9762 34.6714 16.3473Z" fill="#D8553A"/>
<path d="M4.74883 17.3938C5.96641 16.4034 5.96375 14.5507 4.74883 13.5625C4.19235 14.0151 3.53391 16.4057 4.74883 17.3938Z" fill="#D8553A"/>
<path d="M25.8365 9.14383C27.0541 8.15344 27.0514 6.3007 25.8365 5.3125C24.6189 6.30281 24.6216 8.1557 25.8365 9.14383Z" fill="#D8553A"/>
<path d="M16.868 22.2918C17.1476 18.9909 18.4081 16.0558 20.5247 13.8182C20.5033 13.6561 20.4852 13.4896 20.4712 13.3184C20.4389 12.9264 19.9734 12.7424 19.6821 13.0068C17.4766 15.0088 16.0612 17.6069 15.5398 20.5456L15.539 20.5454C15.5003 20.7633 15.4523 21.0808 15.422 21.3303C15.4221 21.3305 15.4222 21.3307 15.4223 21.3309C15.359 21.8515 15.3223 22.3815 15.3145 22.9202C15.3734 22.9317 16.7068 23.6171 16.868 22.2918Z" fill="#E89528"/>
<path d="M15.3459 35.8979C14.7713 33.185 15.2607 30.292 16.3976 27.7854C16.1773 27.4765 15.9363 27.0617 15.7579 26.5467C15.6431 26.2155 15.199 26.1522 15.0063 26.4451C14.9694 26.5013 14.935 26.5577 14.904 26.6124C13.4504 29.1827 12.7512 32.304 13.3976 35.2079C13.9038 37.4854 15.7411 38.9945 17.9404 39.6415C16.6602 38.7916 15.6919 37.5337 15.3459 35.8979Z" fill="#E8C842"/>
<path d="M19.0427 27.2498C19.2332 25.8885 19.79 24.3886 20.6665 23.1346C20.571 22.7805 20.4959 22.3804 20.4593 21.9355C20.4374 21.6701 20.1223 21.5455 19.9252 21.7246C18.7513 22.7903 17.9087 24.1058 17.43 25.5861L17.4288 25.5858C17.3534 25.8184 17.247 26.2037 17.1824 26.5079C17.183 26.5077 17.1835 26.5077 17.1841 26.5075C17.0519 27.1281 16.9784 27.7722 16.9688 28.4352C18.0228 28.5668 18.8948 28.3058 19.0427 27.2498Z" fill="#E8C842"/>
</svg>
