<svg width="45" height="45" viewBox="0 0 45 45" fill="none" xmlns="http://www.w3.org/2000/svg">
<path d="M39.0967 5.105C38.8605 4.9475 33.1915 1.25 22.5 1.25C11.8085 1.25 6.1395 4.9475 5.90331 5.105C5.81771 5.16207 5.74751 5.23939 5.69896 5.33011C5.65041 5.42082 5.62501 5.52211 5.625 5.625V19.4644C5.64639 24.7099 7.24598 29.8274 10.2156 34.1513C13.1853 38.4752 17.3876 41.8052 22.2757 43.7082C22.4201 43.7635 22.5799 43.7635 22.7243 43.7082C27.6124 41.8052 31.8147 38.4752 34.7844 34.1513C37.754 29.8274 39.3536 24.7099 39.375 19.4644V5.625C39.375 5.52211 39.3496 5.42082 39.301 5.33011C39.2525 5.23939 39.1823 5.16207 39.0967 5.105V5.105Z" fill="#7CB342"/>
<path d="M33.125 2.62633V19.4638C33.1059 24.1658 31.8185 28.7755 29.3986 32.8069C26.9786 36.8384 23.5157 40.1422 19.375 42.3701C15.2343 40.1422 11.7714 36.8384 9.35144 32.8069C6.93147 28.7755 5.64408 24.1658 5.625 19.4638V5.62633C5.62526 5.52333 5.65109 5.42201 5.70018 5.33147C5.74927 5.24092 5.82008 5.16399 5.90625 5.10758C6.1375 4.95133 11.8062 1.25133 22.5 1.25133C26.0879 1.22184 29.6628 1.68448 33.125 2.62633V2.62633Z" fill="#9CCC65"/>
<path d="M35.2454 7.35039C31.1956 5.72741 26.8623 4.92994 22.5 5.00482C18.1379 4.93017 13.8048 5.72699 9.75462 7.34857C9.642 7.39672 9.54599 7.47688 9.4785 7.57909C9.41102 7.68131 9.37503 7.80109 9.375 7.92357V19.4693C9.38683 23.7026 10.6022 27.8453 12.8794 31.414C15.1566 34.9828 18.4017 37.8303 22.236 39.6246C22.3187 39.6632 22.4088 39.6832 22.5 39.6832C22.5912 39.6832 22.6813 39.6632 22.764 39.6246C26.5983 37.8303 29.8433 34.9827 32.1205 31.414C34.3977 27.8453 35.6131 23.7026 35.625 19.4693V7.92507C35.625 7.80263 35.589 7.68289 35.5215 7.58072C35.454 7.47855 35.358 7.39846 35.2454 7.35039Z" fill="#EEEEEE"/>
<path d="M33.125 6.5673V19.4673C33.1122 23.0771 32.3508 26.645 30.8888 29.9454C29.4268 33.2459 27.2961 36.2073 24.6312 38.6423C24.0312 38.9986 23.4062 39.3236 22.7625 39.6236C22.6811 39.6646 22.5912 39.6861 22.5 39.6861C22.4088 39.6861 22.3189 39.6646 22.2375 39.6236C18.4026 37.8297 15.1569 34.9821 12.8794 31.4132C10.6019 27.8442 9.38648 23.701 9.375 19.4673V7.92355C9.3754 7.80094 9.41172 7.68113 9.47948 7.57893C9.54724 7.47674 9.64346 7.39665 9.75625 7.34855C13.8058 5.72695 18.1384 4.93013 22.5 5.0048C26.1012 4.97293 29.6855 5.50003 33.125 6.5673V6.5673Z" fill="#FAFAFA"/>
<path d="M27.4297 18.4625C27.3771 18.3608 27.2975 18.2755 27.1996 18.2159C27.1018 18.1564 26.9894 18.1249 26.8749 18.125H24.3914L26.209 13.3472C26.245 13.2526 26.2574 13.1506 26.2453 13.0501C26.2332 12.9496 26.1968 12.8536 26.1394 12.7702C26.0819 12.6869 26.0051 12.6187 25.9154 12.5717C25.8258 12.5246 25.7261 12.5 25.6249 12.5H21.8749C21.7526 12.5 21.633 12.5358 21.5309 12.6032C21.4288 12.6705 21.3487 12.7663 21.3006 12.8788L17.5506 21.6287C17.5098 21.7238 17.4933 21.8275 17.5025 21.9305C17.5117 22.0335 17.5463 22.1326 17.6032 22.219C17.6601 22.3053 17.7375 22.3762 17.8286 22.4252C17.9196 22.4743 18.0214 22.5 18.1249 22.5H20.4494L18.7686 29.2233C18.7332 29.3648 18.7484 29.5142 18.8115 29.6457C18.8747 29.7772 18.9818 29.8824 19.1144 29.9432C19.247 30.004 19.3967 30.0165 19.5375 29.9785C19.6783 29.9406 19.8015 29.8546 19.8856 29.7354L27.3856 19.1104C27.4515 19.0168 27.4905 18.9069 27.4983 18.7926C27.506 18.6784 27.4823 18.5642 27.4297 18.4625Z" fill="#FFCA28"/>
</svg>
