<svg width="45" height="45" viewBox="0 0 45 45" fill="none" xmlns="http://www.w3.org/2000/svg">
<g clip-path="url(#clip0_3_17535)">
<path d="M26.5822 30.9054L27.1379 30.3326C26.951 30.087 26.8423 29.7816 26.8423 29.4562V26.5938C25.8444 27.0413 24.7391 27.2905 23.5766 27.2905H21.4241C20.2615 27.2905 19.1562 27.0413 18.1584 26.5938V29.4562C18.1584 30.1089 17.7215 30.6808 17.0918 30.8525L6.23991 33.8108C4.56059 34.2685 3.39551 35.7938 3.39551 37.5345V44.52C3.39551 44.7865 3.61154 45.0024 3.87794 45.0024H9.37145L10.4262 44.2455L26.5822 30.9054Z" fill="#EA9B58"/>
<path d="M18.1582 26.6953V29.4593C18.1582 30.1121 17.7213 30.684 17.0916 30.8556L6.23991 33.8139C4.56059 34.2717 3.39551 35.7969 3.39551 37.5376V44.5231C3.39551 44.7895 3.61154 45.0056 3.87794 45.0056H6.02133V38.1111C6.02133 37.1277 6.67954 36.266 7.62832 36.0073L19.7174 32.7118C20.3471 32.5401 20.7841 31.9681 20.7841 31.3155V27.3565C19.8559 27.2839 18.972 27.0545 18.1582 26.6953V26.6953Z" fill="#D88A55"/>
<path d="M41.605 44.5233V37.5378C41.605 35.7972 40.44 34.2719 38.7606 33.8141L27.909 30.8559C27.5932 30.7699 27.3261 30.583 27.1381 30.3359L9.37158 45.0058H41.1226C41.389 45.0058 41.605 44.7898 41.605 44.5233V44.5233Z" fill="#FEF1DA"/>
<path d="M27.909 30.8559C27.5932 30.7699 27.3261 30.583 27.1381 30.3359L9.37158 45.0058H12.1784L28.9661 31.1441L27.909 30.8559Z" fill="#FAE2C0"/>
<path d="M34.2425 32.5812L31.337 31.7891L15.8906 45.0045H19.5124L34.2425 32.5812Z" fill="#F3F0F3"/>
<path d="M34.2423 32.5781L19.5122 45.0014H22.7717L36.7056 33.2496L34.2423 32.5781Z" fill="#FAE2C0"/>
<path d="M41.6047 44.5189V37.5334C41.6047 35.7928 40.4397 34.2676 38.7603 33.8097L34.2423 32.5781L19.5122 45.0014H41.1223C41.3887 45.0014 41.6047 44.7854 41.6047 44.5189V44.5189Z" fill="#FEF1DA"/>
<path d="M34.2423 32.5781L19.5122 45.0014H22.7717L36.7056 33.2496L34.2423 32.5781Z" fill="#FAE2C0"/>
<path d="M13.4171 19.2792V13.4375H11.8006C10.5592 13.4375 9.55273 14.4439 9.55273 15.6854V17.3938C9.55273 18.6353 10.5592 19.6417 11.8006 19.6417H13.4256C13.4203 19.5214 13.4171 19.4006 13.4171 19.2792V19.2792Z" fill="#EA9B58"/>
<path d="M33.2003 13.4375H31.5838V19.2792C31.5838 19.4006 31.5806 19.5214 31.5752 19.6416H33.2002C34.4417 19.6416 35.4481 18.6352 35.4481 17.3937V15.6853C35.4481 14.4438 34.4417 13.4375 33.2003 13.4375V13.4375Z" fill="#EA9B58"/>
<path d="M28.2504 0H16.7509C13.6694 0 11.1714 2.49803 11.1714 5.57947V13.5293C11.3712 13.4711 11.5822 13.4393 11.8008 13.4393H13.3293V19.281C13.3293 23.7517 16.9535 27.376 21.4243 27.376H23.5768C28.0475 27.376 31.6718 23.7517 31.6718 19.281V13.4394H33.2003C33.4189 13.4394 33.6299 13.4712 33.8297 13.5294V5.57947C33.8299 2.49803 31.3318 0 28.2504 0ZM30.8503 16.5739C30.8503 20.2975 27.8317 23.3161 24.1081 23.3161H20.8932C17.1697 23.3161 14.1511 20.2975 14.1511 16.5739V11.058C14.1511 9.77273 15.193 8.73079 16.4783 8.73079H28.5229C29.8082 8.73079 30.8502 9.77273 30.8502 11.058V16.5739H30.8503Z" fill="#554E56"/>
<path d="M16.7964 21.9272C15.1886 20.695 14.151 18.756 14.151 16.5739V11.058C14.151 9.77273 15.1929 8.73079 16.4782 8.73079H16.7963V5.57947C16.7964 2.49803 19.2944 0 22.3759 0H16.7509C13.6694 0 11.1714 2.49803 11.1714 5.57947V13.5293C11.3712 13.4711 11.5822 13.4393 11.8008 13.4393H13.3293V19.281C13.3293 22.0308 14.7006 24.4598 16.7963 25.9228V21.9272H16.7964Z" fill="#433F43"/>
<path d="M24.1079 23.3196H20.8931C17.1695 23.3196 14.1509 20.301 14.1509 16.5775V11.0616C14.1509 9.77632 15.1928 8.73438 16.4781 8.73438H28.5228C29.8081 8.73438 30.8501 9.77632 30.8501 11.0616V16.5775C30.8502 20.301 27.8316 23.3196 24.1079 23.3196Z" fill="#EA9B58"/>
<path d="M16.7302 16.5775V11.0616C16.7302 9.77632 17.7721 8.73438 19.0575 8.73438H16.4781C15.1928 8.73438 14.1509 9.77632 14.1509 11.0616V16.5775C14.1509 20.301 17.1695 23.3196 20.8931 23.3196H23.4725C19.7488 23.3196 16.7302 20.301 16.7302 16.5775Z" fill="#D88A55"/>
</g>
<defs>
<clipPath id="clip0_3_17535">
<rect width="45" height="45" fill="white"/>
</clipPath>
</defs>
</svg>
