<svg width="45" height="45" viewBox="0 0 45 45" fill="none" xmlns="http://www.w3.org/2000/svg">
<g clip-path="url(#clip0_3_17788)">
<path d="M20.8396 5.9963C22.8258 3.28854 24.556 1.24026 25.4095 0.262678C25.5568 0.0956729 25.7687 0 25.9914 0C26.214 0 26.426 0.0956729 26.5733 0.262678C29.3819 3.45147 41.5086 18.2472 41.5086 29.4816C41.5086 38.0516 34.5613 44.9989 25.9914 44.9989C17.4214 44.9989 10.4741 38.0516 10.4741 29.4816C10.4741 25.7808 11.7931 21.692 13.6552 17.7584L20.8396 5.9963Z" fill="#7ED09E"/>
<path d="M41.5086 29.4828C41.5106 35.4282 38.1142 40.8517 32.7644 43.4456C27.4147 46.0395 21.053 45.3474 16.3862 41.6638C23.8361 42.11 30.5478 37.1879 32.3612 29.9483C34.7509 20.4285 28.8155 5.99744 25.9836 2.94278e-05C26.2092 -0.00193321 26.4244 0.0943588 26.5733 0.263823C29.3819 3.45262 41.5086 18.2483 41.5086 29.4828Z" fill="#71C285"/>
<path d="M25.9912 40.344C25.5627 40.344 25.2153 39.9967 25.2153 39.5682V31.0337C25.2153 30.6052 25.5627 30.2578 25.9912 30.2578C26.4197 30.2578 26.7671 30.6052 26.7671 31.0337V39.5682C26.7671 39.9967 26.4197 40.344 25.9912 40.344Z" fill="#4FBA6F"/>
<path d="M12.4136 17.8448C17.3413 17.8448 21.336 13.8501 21.336 8.92241C21.336 3.9947 17.3413 0 12.4136 0C7.48591 0 3.49121 3.9947 3.49121 8.92241C3.49121 13.8501 7.48591 17.8448 12.4136 17.8448Z" fill="#ECF0F1"/>
<path d="M16.681 6.98626H14.3534V4.65867C14.3534 4.23018 14.006 3.88281 13.5775 3.88281H11.2499C10.8214 3.88281 10.4741 4.23018 10.4741 4.65867V6.98626H8.14647C7.71797 6.98626 7.37061 7.33363 7.37061 7.76212V10.0897C7.37061 10.5182 7.71797 10.8656 8.14647 10.8656H10.4741V13.1932C10.4741 13.6217 10.8214 13.969 11.2499 13.969H13.5775C14.006 13.969 14.3534 13.6217 14.3534 13.1932V10.8656H16.681C17.1094 10.8656 17.4568 10.5182 17.4568 10.0897V7.76212C17.4568 7.33363 17.1094 6.98626 16.681 6.98626Z" fill="#FF5364"/>
<path d="M28.3192 22.8887C28.3189 23.895 28.2332 24.8995 28.0632 25.8913C27.7829 27.7416 27.0735 29.5006 25.9916 31.0275H25.9839C24.9079 29.4982 24.2014 27.74 23.9201 25.8913C23.7501 24.8995 23.6644 23.895 23.6641 22.8887C23.6641 19.5603 24.5796 16.5965 25.9916 14.7422C27.4037 16.5965 28.3192 19.5603 28.3192 22.8887V22.8887Z" fill="#4C8056"/>
<path d="M36.0774 20.9453C35.7632 23.5039 34.5605 25.8709 32.6791 27.6332C31.9195 28.3952 31.0702 29.0622 30.1498 29.6195H30.1421C28.8871 30.4066 27.4658 30.8901 25.9912 31.0315V31.0238C27.0731 29.4968 27.7825 27.7378 28.0628 25.8876C28.4635 25.3386 28.9071 24.8223 29.3895 24.3436C31.1518 22.4622 33.5188 21.2595 36.0774 20.9453V20.9453Z" fill="#4C8056"/>
<path d="M38.405 31.0348C36.5216 32.1218 34.3714 32.6593 32.1981 32.5865C31.2766 32.5876 30.357 32.5019 29.4516 32.3305H29.4438C28.2195 32.1276 27.0467 31.6875 25.9912 31.0348C27.4658 30.8934 28.8871 30.4099 30.1421 29.6227H30.1498C30.8284 29.5278 31.5129 29.4811 32.1981 29.4831C34.3714 29.4103 36.5216 29.9479 38.405 31.0348Z" fill="#4C8056"/>
<path d="M31.4222 36.4701C28.5279 36.4106 26.1645 34.1383 25.9912 31.2485V31.0391C27.0467 31.6917 28.2195 32.1319 29.4438 32.3348H29.4516C29.5679 32.4356 29.6843 32.5442 29.8007 32.6606C30.843 33.6528 31.4297 35.0311 31.4222 36.4701Z" fill="#4C8056"/>
<path d="M25.9916 31.0391V31.2485C25.9378 32.6117 25.3596 33.9014 24.3778 34.8485C23.3835 35.8924 22.0022 36.4792 20.5606 36.4701C20.5567 35.0318 21.1428 33.6549 22.1821 32.6606C22.2985 32.5442 22.4149 32.4356 22.5313 32.3348H22.539C23.7605 32.1305 24.9305 31.6904 25.9838 31.0391H25.9916Z" fill="#4C8056"/>
<path d="M25.9837 31.0348C24.9303 31.6861 23.7603 32.1262 22.5388 32.3305H22.5311C21.6256 32.5019 20.7061 32.5876 19.7845 32.5865C17.6112 32.6593 15.461 32.1218 13.5776 31.0348C15.461 29.9479 17.6112 29.4103 19.7845 29.4831C20.4697 29.4811 21.1542 29.5278 21.8328 29.6227H21.8406C23.0928 30.4097 24.5115 30.8933 25.9837 31.0348Z" fill="#4C8056"/>
<path d="M25.9837 31.0238V31.0315C24.5115 30.89 23.0928 30.4064 21.8406 29.6195H21.8329C20.9125 29.0622 20.0632 28.3952 19.3035 27.6332C17.4222 25.8709 16.2195 23.5039 15.9053 20.9453C18.4639 21.2595 20.8309 22.4622 22.5932 24.3436C23.0756 24.8223 23.5192 25.3386 23.9199 25.8876C24.2012 27.7362 24.9077 29.4944 25.9837 31.0238V31.0238Z" fill="#4C8056"/>
</g>
<defs>
<clipPath id="clip0_3_17788">
<rect width="45" height="45" fill="white"/>
</clipPath>
</defs>
</svg>
