<svg width="45" height="45" viewBox="0 0 45 45" fill="none" xmlns="http://www.w3.org/2000/svg">
<path d="M9.99364 45L4.88439 34.4348C1.04409 26.4938 3.29374 17.1847 9.79238 11.7961C13.8377 8.44163 17.6973 4.86923 21.2392 0.986924L22.1395 0L24.2332 2.76618C26.8165 6.17933 28.7878 9.80868 29.9525 13.4862L9.99364 45Z" fill="#00AA95"/>
<path d="M41.2 13.1752L40.5195 9.77344C37.156 17.7018 28.5289 21.9146 23.5839 27.3852C14.9362 36.9523 9.99365 44.997 9.99365 44.997H15.1138C37.8712 44.997 44.4934 29.6373 41.2 13.1752V13.1752Z" fill="#00CC76"/>
<path d="M40.5195 9.77344L39.2792 10.2699C36.2231 11.4933 33.1077 12.5529 29.9525 13.4832V13.4833C28.0706 14.0382 26.1745 14.5471 24.2682 15.0173C16.0717 17.0393 9.99365 24.4404 9.99365 33.2612V44.997C9.99374 44.997 31.2739 31.5668 40.5195 9.77344V9.77344Z" fill="#A5E887"/>
</svg>
