<svg width="45" height="45" viewBox="0 0 45 45" fill="none" xmlns="http://www.w3.org/2000/svg">
<g clip-path="url(#clip0_3_17656)">
<path d="M43.8539 25.8507C43.4 24.0898 42.2875 22.5703 40.7459 21.6057C39.705 20.9937 38.5488 20.6033 37.3499 20.459L37.2869 20.4507C29.2904 19.4007 29.0077 27.7257 28.8532 28.9032C28.6987 30.0807 28.3282 36.0057 32.6077 40.5537C36.8872 45.1017 42.5392 45.4467 43.8577 41.6352C45.1762 37.8237 42.3224 37.847 43.2892 33.5915C44.0204 30.3477 44.7089 28.8357 43.8539 25.8507Z" fill="#E6AB71"/>
<path d="M31.6637 32.9329C31.483 32.9327 31.3085 32.8672 31.1722 32.7486C31.0359 32.6299 30.947 32.4661 30.9219 32.2871C30.5072 29.3306 31.2894 26.4454 32.9642 24.7564C33.5807 24.1304 34.3383 23.6614 35.1735 23.3887C36.0086 23.1159 36.897 23.0474 37.7642 23.1889C40.3952 23.5354 41.8749 25.0189 42.1614 27.5996C42.1752 27.6989 42.169 27.7999 42.1431 27.8967C42.1172 27.9935 42.0721 28.0842 42.0106 28.1633C41.9491 28.2424 41.8723 28.3084 41.7849 28.3573C41.6974 28.4063 41.6011 28.4372 41.5015 28.4483C41.4019 28.4594 41.301 28.4504 41.205 28.4218C41.1089 28.3933 41.0195 28.3458 40.9421 28.2821C40.8647 28.2185 40.8009 28.1399 40.7543 28.0512C40.7078 27.9624 40.6795 27.8653 40.6712 27.7654C40.4589 25.8589 39.5312 24.9349 37.5684 24.6761C36.9308 24.5652 36.2758 24.6106 35.6596 24.8085C35.0434 25.0064 34.4844 25.3509 34.0307 25.8124C32.6807 27.1751 32.0574 29.5766 32.4092 32.0779C32.4229 32.1754 32.4173 32.2748 32.3927 32.3702C32.3681 32.4656 32.3249 32.5552 32.2656 32.6339C32.2064 32.7126 32.1322 32.7788 32.0473 32.8289C31.9624 32.8789 31.8685 32.9117 31.7709 32.9254C31.7354 32.9306 31.6996 32.9331 31.6637 32.9329Z" fill="#C07357"/>
<path d="M38.9126 39.6721C38.4079 39.6456 37.9235 39.4653 37.5243 39.1554C37.2315 38.9481 36.9494 38.726 36.6791 38.4901C36.2677 38.108 35.7721 37.8281 35.2323 37.6734C33.6843 37.1296 32.9891 36.5596 33.2216 34.7926C33.2991 34.0866 33.5413 33.4086 33.9286 32.8132C34.3158 32.2178 34.8374 31.7215 35.4513 31.3644C36.098 30.941 36.8441 30.6942 37.6156 30.6484C38.3871 30.6026 39.1572 30.7595 39.8493 31.1034C40.0271 31.1929 40.162 31.3493 40.2243 31.5383C40.2867 31.7273 40.2715 31.9333 40.182 32.111C40.0924 32.2887 39.936 32.4236 39.747 32.486C39.5581 32.5484 39.3521 32.5331 39.1743 32.4436C38.7068 32.2142 38.1868 32.1127 37.6674 32.1496C37.1479 32.1865 36.6475 32.3604 36.2171 32.6536C35.7985 32.8952 35.4434 33.2328 35.1811 33.6386C34.9187 34.0444 34.7566 34.5068 34.7081 34.9876C34.6001 35.8126 34.5933 35.8591 35.7288 36.2581C36.443 36.4741 37.0996 36.8475 37.6503 37.3509C37.8855 37.5566 38.131 37.7501 38.3861 37.9306C38.5751 38.0641 38.8361 38.2134 38.9763 38.1616C39.012 38.1489 39.0442 38.1279 39.0703 38.1004C39.0963 38.073 39.1155 38.0397 39.1263 38.0034C39.1259 37.7151 39.0699 37.4297 38.9613 37.1626L39.6626 36.8919L40.3773 36.6669C40.5698 37.1543 40.6506 37.6786 40.6136 38.2014C40.5677 38.5116 40.4382 38.8034 40.2389 39.0455C40.0397 39.2876 39.7782 39.4708 39.4826 39.5754C39.2995 39.64 39.1067 39.6727 38.9126 39.6721V39.6721Z" fill="#C07357"/>
<path d="M37.6643 35.93C37.5233 35.9298 37.3852 35.8899 37.2658 35.8149C37.1465 35.7398 37.0507 35.6327 36.9895 35.5057C36.9282 35.3787 36.904 35.237 36.9197 35.0969C36.9353 34.9567 36.9901 34.8239 37.0778 34.7135C38.064 33.4707 39.9225 33.7002 40.0028 33.7107C40.1964 33.7403 40.3708 33.8445 40.4886 34.001C40.6064 34.1575 40.6583 34.3538 40.6333 34.5481C40.6082 34.7424 40.5081 34.9191 40.3544 35.0406C40.2007 35.162 40.0056 35.2185 39.8108 35.198C39.7868 35.1942 38.7008 35.0847 38.2545 35.648C38.1838 35.7365 38.094 35.8079 37.9918 35.8567C37.8895 35.9055 37.7776 35.9306 37.6643 35.93V35.93Z" fill="#C07357"/>
<path d="M27.75 24H24.75C24.5511 24 24.3603 23.921 24.2197 23.7803C24.079 23.6397 24 23.4489 24 23.25C24 23.0511 24.079 22.8603 24.2197 22.7197C24.3603 22.579 24.5511 22.5 24.75 22.5H27.75C27.9489 22.5 28.1397 22.579 28.2803 22.7197C28.421 22.8603 28.5 23.0511 28.5 23.25C28.5 23.4489 28.421 23.6397 28.2803 23.7803C28.1397 23.921 27.9489 24 27.75 24Z" fill="#E5AB71"/>
<path d="M25.5001 21.7501C25.3219 21.7503 25.1494 21.6869 25.0137 21.5715C24.8779 21.4561 24.7877 21.2961 24.7592 21.1202C24.7307 20.9443 24.7657 20.764 24.858 20.6115C24.9504 20.4591 25.0939 20.3446 25.2631 20.2884L27.5131 19.5384C27.6066 19.5073 27.7054 19.4949 27.8038 19.5019C27.9021 19.509 27.9981 19.5353 28.0863 19.5795C28.1745 19.6236 28.2531 19.6847 28.3176 19.7593C28.3822 19.8338 28.4314 19.9203 28.4626 20.0139C28.4937 20.1074 28.5061 20.2062 28.499 20.3046C28.492 20.4029 28.4656 20.4989 28.4215 20.5871C28.3773 20.6753 28.3162 20.7539 28.2417 20.8185C28.1671 20.883 28.0806 20.9323 27.9871 20.9634L25.7371 21.7134C25.6605 21.7383 25.5805 21.7507 25.5001 21.7501V21.7501Z" fill="#E5AB71"/>
<path d="M26.9999 27.0016C26.9194 27.0017 26.8393 26.9888 26.7629 26.9634L24.5129 26.2134C24.4193 26.1823 24.3328 26.133 24.2583 26.0685C24.1838 26.0039 24.1227 25.9253 24.0785 25.8371C24.0344 25.7489 24.008 25.6529 24.0009 25.5546C23.9939 25.4562 24.0063 25.3574 24.0374 25.2639C24.0685 25.1703 24.1178 25.0838 24.1823 25.0093C24.2469 24.9347 24.3255 24.8736 24.4137 24.8295C24.5018 24.7853 24.5979 24.759 24.6962 24.7519C24.7946 24.7449 24.8933 24.7573 24.9869 24.7884L27.2369 25.5384C27.4072 25.5937 27.552 25.7081 27.6453 25.8609C27.7385 26.0137 27.774 26.1949 27.7454 26.3716C27.7168 26.5483 27.6259 26.7089 27.4892 26.8245C27.3525 26.94 27.1789 27.0029 26.9999 27.0016V27.0016Z" fill="#E5AB71"/>
<path d="M24.2626 17.318C23.8876 17.5955 23.1376 17.783 23.0476 18.278C22.9979 18.5337 23.0294 18.7985 23.1376 19.0355C23.3926 19.5755 23.6701 19.868 23.4676 20.0405C23.2651 20.213 22.7326 20.618 22.7326 20.618C22.7326 20.618 23.2426 21.278 22.9576 21.4805C22.6126 21.728 22.1626 21.848 22.0501 22.3205C21.8776 23.003 22.4176 23.3105 22.0201 24.458C21.9448 24.7757 21.7478 25.0511 21.4715 25.2251C21.1952 25.399 20.8616 25.4575 20.5426 25.388C19.1837 25.0542 17.8442 24.6461 16.5301 24.1655C14.9551 24.8855 14.2576 27.7505 14.2576 27.7505H2.6251C2.8699 27.2843 3.14291 26.8334 3.4426 26.4005C4.04595 25.0622 4.42113 23.6325 4.5526 22.1705C4.72257 20.6946 4.50277 19.1999 3.9151 17.8355C2.9551 15.623 0.802603 14.4305 0.750103 11.0105C0.727982 9.72258 0.884471 8.43786 1.2151 7.19295C1.64757 5.68911 2.55862 4.36729 3.8101 3.42795C7.1176 0.802952 10.0276 0.0604518 15.8401 1.41045C17.4442 1.67046 18.9348 2.40142 20.1226 3.51045C20.8908 4.34756 21.4848 5.3291 21.8701 6.39795C22.0498 6.93117 22.1976 7.47463 22.3126 8.02545C22.5151 8.92545 23.1601 9.84045 23.0926 10.343C23.0026 10.988 22.0426 11.2655 22.0351 11.933C22.0468 12.0792 22.093 12.2206 22.1701 12.3455C22.7262 13.5424 23.4129 14.6743 24.2176 15.7205C25.0051 16.6955 24.8326 16.883 24.2626 17.318Z" fill="#E6AB71"/>
</g>
<defs>
<clipPath id="clip0_3_17656">
<rect width="45" height="45" fill="white"/>
</clipPath>
</defs>
</svg>
