<svg width="156" height="164" viewBox="0 0 156 164" fill="none" xmlns="http://www.w3.org/2000/svg">
<path d="M108.302 32.9757C108.302 45.1811 101.006 55.7457 90.5546 60.5296C88.1665 61.6269 86.6534 64.0396 86.6534 66.6704V68.4288H69.3458V66.6634C69.3458 64.0396 67.8434 61.6234 65.455 60.5296C54.8211 55.6661 47.4584 44.8315 47.7042 32.3734C48.0123 16.6996 60.3908 3.72921 76.0369 2.7219C93.598 1.59309 108.302 15.6161 108.302 32.9757Z" fill="white"/>
<path d="M138.577 39.0056C144.312 39.0056 148.961 34.3562 148.961 28.6209C148.961 22.8857 144.312 18.2363 138.577 18.2363C132.842 18.2363 128.192 22.8857 128.192 28.6209C128.192 34.3562 132.842 39.0056 138.577 39.0056Z" fill="#1FA45B" fill-opacity="0.22"/>
<path d="M17.4231 40.7363C21.2446 40.7363 24.3462 43.8344 24.3462 47.6594C24.3462 51.4844 21.2446 54.5825 17.4231 54.5825C13.5981 54.5825 10.5 51.4844 10.5 47.6594C10.5 43.8344 13.5981 40.7363 17.4231 40.7363Z" fill="#1FA45B" fill-opacity="0.22"/>
<path d="M133.385 137.66V151.506L78 161.891V148.045L133.385 137.66Z" fill="#1FA45B" fill-opacity="0.22"/>
<path d="M133.385 106.506V137.659L78 148.044V85.7363L95.3077 113.429L133.347 106.298L133.385 106.506Z" fill="white"/>
<path d="M78 148.045V161.891L22.6154 151.506V137.66L78 148.045Z" fill="#1FA45B" fill-opacity="0.22"/>
<path d="M78 85.7363V148.044L22.6154 137.659V106.506L22.6534 106.298L60.6923 113.429L78 85.7363Z" fill="white"/>
<path d="M133.385 75.3516L150.692 103.044C150.56 103.068 95.3523 113.42 95.3077 113.428L78 85.7362L133.385 75.3516Z" fill="#1FA45B" fill-opacity="0.22"/>
<path d="M78 85.7362L60.6923 113.428C60.5559 113.403 5.35095 103.052 5.30768 103.044L22.6154 75.3516L78 85.7362Z" fill="#1FA45B" fill-opacity="0.22"/>
<path d="M69.3461 68.4297H86.6538V75.3528H69.3461V68.4297Z" fill="#1FA45B" fill-opacity="0.22"/>
<path d="M151.558 59.7743C152.992 59.7743 154.154 58.612 154.154 57.1782C154.154 55.7444 152.992 54.582 151.558 54.582C150.124 54.582 148.962 55.7444 148.962 57.1782C148.962 58.612 150.124 59.7743 151.558 59.7743Z" fill="#1FA45B"/>
<path d="M120.404 52.8525C121.838 52.8525 123 51.6901 123 50.2563C123 48.8225 121.838 47.6602 120.404 47.6602C118.97 47.6602 117.808 48.8225 117.808 50.2563C117.808 51.6901 118.97 52.8525 120.404 52.8525Z" fill="#1FA45B"/>
<path d="M115.212 9.58293C116.645 9.58293 117.808 8.4206 117.808 6.98678C117.808 5.55296 116.645 4.39062 115.212 4.39062C113.778 4.39062 112.615 5.55296 112.615 6.98678C112.615 8.4206 113.778 9.58293 115.212 9.58293Z" fill="#1FA45B"/>
<path d="M32.1346 11.3134C33.5684 11.3134 34.7308 10.1511 34.7308 8.71725C34.7308 7.28343 33.5684 6.12109 32.1346 6.12109C30.7008 6.12109 29.5385 7.28343 29.5385 8.71725C29.5385 10.1511 30.7008 11.3134 32.1346 11.3134Z" fill="#1FA45B"/>
<path d="M6.17306 73.622C7.60687 73.622 8.76921 72.4597 8.76921 71.0258C8.76921 69.592 7.60687 68.4297 6.17306 68.4297C4.73924 68.4297 3.5769 69.592 3.5769 71.0258C3.5769 72.4597 4.73924 73.622 6.17306 73.622Z" fill="#1FA45B"/>
<path d="M77.9979 163.622C77.1813 163.622 76.4548 163.041 76.2986 162.21C76.1224 161.27 76.7414 160.366 77.6808 160.19L131.654 150.07V106.506C131.654 105.55 132.429 104.775 133.385 104.775C134.341 104.775 135.115 105.55 135.115 106.506V151.506C135.115 152.339 134.522 153.054 133.704 153.207L78.3191 163.592C78.2111 163.612 78.1038 163.622 77.9979 163.622Z" fill="#1FA45B"/>
<path d="M95.3073 115.16C94.7182 115.16 94.1602 114.858 93.84 114.346L76.5323 86.6539C76.2294 86.1686 76.1855 85.5649 76.4153 85.0409C76.6451 84.5168 77.119 84.1409 77.6812 84.0356L133.066 73.6507C133.766 73.5198 134.475 73.8307 134.853 74.4347L152.16 102.127C152.463 102.612 152.507 103.216 152.277 103.739C152.048 104.263 151.574 104.64 151.012 104.745L95.6272 115.13C95.5199 115.15 95.4133 115.16 95.3073 115.16ZM80.8118 86.9696L96.1495 111.51L147.88 101.811L132.543 77.2707L80.8118 86.9696Z" fill="#1FA45B"/>
<path d="M86.6539 77.083H69.3462C68.3904 77.083 67.6154 76.3079 67.6154 75.3522V66.6637C67.6154 64.6948 66.4845 62.9049 64.735 62.1035C53.087 56.7762 45.7229 45.0928 45.9742 32.3395C46.2989 15.8234 59.4555 2.05516 75.9262 0.994888C76.6206 0.950234 77.3236 0.927734 78.0156 0.927734C95.6701 0.927734 110.033 15.3045 110.033 32.976C110.033 45.4542 102.67 56.8873 91.2757 62.1035C89.5203 62.91 88.3846 64.7028 88.3846 66.6703V75.3519C88.3846 76.3083 87.6099 77.083 86.6539 77.083ZM71.0769 73.6214H84.9231V66.6707C84.9231 63.3552 86.8498 60.3274 89.8326 58.9573C100.002 54.3019 106.572 44.1042 106.572 32.976C106.572 17.2132 93.7614 4.38927 78.0156 4.38927C77.3974 4.38927 76.7687 4.4097 76.1484 4.4495C61.4587 5.3952 49.7248 17.6757 49.435 32.4077C49.2107 43.7816 55.7814 54.2022 66.1754 58.9559C69.1533 60.3194 71.0769 63.3448 71.0769 66.6637V73.6214Z" fill="#1FA45B"/>
<path d="M100.822 35.8778C99.8662 35.8778 99.0911 35.1027 99.0911 34.147C99.0911 28.3496 96.6539 22.7388 92.4041 18.7539C88.1063 14.724 82.5076 12.7131 76.6334 13.0905C65.7884 13.7883 57.1259 22.853 56.9123 33.7275C56.8936 34.6832 56.1148 35.4392 55.1479 35.424C54.1922 35.4053 53.4328 34.6153 53.4514 33.6596C53.7 21.0008 63.7852 10.4483 76.4111 9.63619C83.248 9.19726 89.7685 11.5376 94.7718 16.229C99.7166 20.8661 102.553 27.397 102.553 34.1473C102.553 35.1031 101.778 35.8778 100.822 35.8778Z" fill="#1FA45B"/>
<path d="M72.8077 39.8852C68.9903 39.8852 65.8846 36.7795 65.8846 32.9621C65.8846 29.1448 68.9903 26.0391 72.8077 26.0391C76.625 26.0391 79.7307 29.1448 79.7307 32.9621C79.7307 36.7795 76.625 39.8852 72.8077 39.8852ZM72.8077 29.5006C70.899 29.5006 69.3461 31.0534 69.3461 32.9621C69.3461 34.8708 70.899 36.4237 72.8077 36.4237C74.7164 36.4237 76.2692 34.8708 76.2692 32.9621C76.2692 31.0534 74.7164 29.5006 72.8077 29.5006Z" fill="#1FA45B"/>
<path d="M83.1923 39.8852C79.3753 39.8852 76.2692 36.7795 76.2692 32.9621C76.2692 29.1448 79.3753 26.0391 83.1923 26.0391C87.0093 26.0391 90.1154 29.1448 90.1154 32.9621C90.1154 36.7795 87.0093 39.8852 83.1923 39.8852ZM83.1923 29.5006C81.2836 29.5006 79.7308 31.0534 79.7308 32.9621C79.7308 34.8708 81.2836 36.4237 83.1923 36.4237C85.101 36.4237 86.6538 34.8708 86.6538 32.9621C86.6538 31.0534 85.101 29.5006 83.1923 29.5006Z" fill="#1FA45B"/>
<path d="M78 60.6555C77.0439 60.6555 76.2692 59.8805 76.2692 58.9247V32.9632C76.2692 32.0075 77.0439 31.2324 78 31.2324C78.9561 31.2324 79.7308 32.0075 79.7308 32.9632V58.9247C79.7308 59.8805 78.9561 60.6555 78 60.6555Z" fill="#1FA45B"/>
<path d="M78 163.621C77.8937 163.621 77.7871 163.611 77.6808 163.591L22.2962 153.207C21.4775 153.054 20.8842 152.339 20.8842 151.506V106.506C20.8842 105.55 21.6593 104.775 22.615 104.775C23.5707 104.775 24.3458 105.55 24.3458 106.506V150.069L76.2688 159.805V85.7366C76.2688 84.7806 77.0435 84.0059 77.9996 84.0059C78.9557 84.0059 79.7304 84.7806 79.7304 85.7366V161.89C79.7304 162.405 79.5012 162.893 79.1049 163.222C78.7923 163.482 78.4001 163.621 78 163.621Z" fill="#1FA45B"/>
<path d="M77.9979 149.776C77.1813 149.776 76.4548 149.196 76.2986 148.365C76.1224 147.425 76.7414 146.52 77.6808 146.345L133.065 135.96C134.005 135.783 134.909 136.402 135.086 137.342C135.262 138.282 134.643 139.185 133.704 139.362L78.3191 149.747C78.2111 149.767 78.1038 149.776 77.9979 149.776Z" fill="#1FA45B"/>
<path d="M78.002 149.777C77.8958 149.777 77.7892 149.767 77.6808 149.747L22.2962 139.362C21.3567 139.186 20.7378 138.282 20.914 137.342C21.0902 136.402 21.995 135.782 22.9341 135.96L78.3188 146.345C79.2582 146.521 79.8771 147.425 79.7006 148.365C79.5452 149.196 78.8183 149.777 78.002 149.777Z" fill="#1FA45B"/>
<path d="M60.6926 115.16C60.5867 115.16 60.4801 115.15 60.3735 115.13L4.98886 104.745C4.42636 104.64 3.95282 104.263 3.72298 103.739C3.49313 103.215 3.53709 102.612 3.83997 102.127L21.1477 74.4346C21.5253 73.8306 22.2339 73.5201 22.9345 73.6506L78.3191 84.0355C78.8813 84.1411 79.3548 84.517 79.5847 85.0407C79.8145 85.5645 79.7706 86.1685 79.4677 86.6538L62.16 114.346C61.8398 114.858 61.2818 115.16 60.6926 115.16ZM8.11982 101.811L59.8504 111.51L75.1882 86.9695L23.4572 77.2703L8.11982 101.811Z" fill="#1FA45B"/>
<path d="M22.6133 77.0825C21.7967 77.0825 21.0701 76.502 20.914 75.6702C20.7378 74.7307 21.3567 73.8262 22.2962 73.65L49.9885 68.4577C50.9269 68.2815 51.8325 68.9004 52.0086 69.8399C52.1848 70.7793 51.5659 71.6838 50.6265 71.86L22.9341 77.0523C22.8265 77.0728 22.7192 77.0825 22.6133 77.0825Z" fill="#1FA45B"/>
<path d="M133.387 77.0837C133.28 77.0837 133.174 77.074 133.065 77.0539L105.373 71.8616C104.434 71.6854 103.815 70.7809 103.991 69.8415C104.167 68.9017 105.072 68.2845 106.011 68.4593L133.704 73.6516C134.643 73.8278 135.262 74.7323 135.086 75.6717C134.93 76.5036 134.203 77.0837 133.387 77.0837Z" fill="#1FA45B"/>
<path d="M12.2308 149.775C11.275 149.775 10.5 149 10.5 148.044V120.352C10.5 119.396 11.275 118.621 12.2308 118.621C13.1865 118.621 13.9615 119.396 13.9615 120.352V148.044C13.9615 149 13.1865 149.775 12.2308 149.775Z" fill="#1FA45B"/>
<path d="M1.84613 156.698C0.890395 156.698 0.115356 155.924 0.115356 154.968V141.121C0.115356 140.165 0.890395 139.391 1.84613 139.391C2.80186 139.391 3.57689 140.165 3.57689 141.121V154.968C3.57689 155.924 2.80186 156.698 1.84613 156.698Z" fill="#1FA45B"/>
<path d="M143.769 149.775C142.813 149.775 142.038 149 142.038 148.044V120.352C142.038 119.396 142.813 118.621 143.769 118.621C144.725 118.621 145.5 119.396 145.5 120.352V148.044C145.5 149 144.725 149.775 143.769 149.775Z" fill="#1FA45B"/>
<path d="M154.154 156.698C153.198 156.698 152.423 155.924 152.423 154.968V141.121C152.423 140.165 153.198 139.391 154.154 139.391C155.11 139.391 155.885 140.165 155.885 141.121V154.968C155.885 155.924 155.11 156.698 154.154 156.698Z" fill="#1FA45B"/>
<path d="M86.6538 70.1608H69.3461C68.3904 70.1608 67.6154 69.3857 67.6154 68.43C67.6154 67.4743 68.3904 66.6992 69.3461 66.6992H86.6538C87.6099 66.6992 88.3846 67.4743 88.3846 68.43C88.3846 69.3857 87.6099 70.1608 86.6538 70.1608Z" fill="#1FA45B"/>
<path d="M17.4231 56.3136C12.6513 56.3136 8.76923 52.4314 8.76923 47.6597C8.76923 42.888 12.6513 39.0059 17.4231 39.0059C22.1948 39.0059 26.0769 42.888 26.0769 47.6597C26.0769 52.4314 22.1948 56.3136 17.4231 56.3136ZM17.4231 42.4674C14.56 42.4674 12.2308 44.7967 12.2308 47.6597C12.2308 50.5227 14.56 52.852 17.4231 52.852C20.2861 52.852 22.6154 50.5227 22.6154 47.6597C22.6154 44.7967 20.2861 42.4674 17.4231 42.4674Z" fill="#1FA45B"/>
<path d="M138.577 40.7366C131.897 40.7366 126.462 35.3017 126.462 28.6212C126.462 21.9408 131.897 16.5059 138.577 16.5059C145.257 16.5059 150.692 21.9408 150.692 28.6212C150.692 35.3017 145.257 40.7366 138.577 40.7366ZM138.577 19.9674C133.805 19.9674 129.923 23.8495 129.923 28.6212C129.923 33.393 133.805 37.2751 138.577 37.2751C143.349 37.2751 147.231 33.393 147.231 28.6212C147.231 23.8495 143.349 19.9674 138.577 19.9674Z" fill="#1FA45B"/>
<path d="M108.302 32.9757C108.302 45.1811 101.006 55.7457 90.5546 60.5296C88.1665 61.6269 86.6534 64.0396 86.6534 66.6704V68.4288H69.3458V66.6634C69.3458 64.0396 67.8434 61.6234 65.455 60.5296C54.8211 55.6661 47.4584 44.8315 47.7042 32.3734C48.0123 16.6996 60.3908 3.72921 76.0369 2.7219C93.598 1.59309 108.302 15.6161 108.302 32.9757Z" fill="white"/>
<path d="M138.577 39.0056C144.312 39.0056 148.961 34.3562 148.961 28.6209C148.961 22.8857 144.312 18.2363 138.577 18.2363C132.842 18.2363 128.192 22.8857 128.192 28.6209C128.192 34.3562 132.842 39.0056 138.577 39.0056Z" fill="#1FA45B" fill-opacity="0.22"/>
<path d="M17.4231 40.7363C21.2446 40.7363 24.3462 43.8344 24.3462 47.6594C24.3462 51.4844 21.2446 54.5825 17.4231 54.5825C13.5981 54.5825 10.5 51.4844 10.5 47.6594C10.5 43.8344 13.5981 40.7363 17.4231 40.7363Z" fill="#1FA45B" fill-opacity="0.22"/>
<path d="M133.385 137.66V151.506L78 161.891V148.045L133.385 137.66Z" fill="#1FA45B" fill-opacity="0.22"/>
<path d="M133.385 106.506V137.659L78 148.044V85.7363L95.3077 113.429L133.347 106.298L133.385 106.506Z" fill="white"/>
<path d="M78 148.045V161.891L22.6154 151.506V137.66L78 148.045Z" fill="#1FA45B" fill-opacity="0.22"/>
<path d="M78 85.7363V148.044L22.6154 137.659V106.506L22.6534 106.298L60.6923 113.429L78 85.7363Z" fill="white"/>
<path d="M133.385 75.3516L150.692 103.044C150.56 103.068 95.3523 113.42 95.3077 113.428L78 85.7362L133.385 75.3516Z" fill="#1FA45B" fill-opacity="0.22"/>
<path d="M78 85.7362L60.6923 113.428C60.5559 113.403 5.35095 103.052 5.30768 103.044L22.6154 75.3516L78 85.7362Z" fill="#1FA45B" fill-opacity="0.22"/>
<path d="M69.3461 68.4297H86.6538V75.3528H69.3461V68.4297Z" fill="#1FA45B" fill-opacity="0.22"/>
<path d="M151.558 59.7743C152.992 59.7743 154.154 58.612 154.154 57.1782C154.154 55.7444 152.992 54.582 151.558 54.582C150.124 54.582 148.962 55.7444 148.962 57.1782C148.962 58.612 150.124 59.7743 151.558 59.7743Z" fill="#1FA45B"/>
<path d="M120.404 52.8525C121.838 52.8525 123 51.6901 123 50.2563C123 48.8225 121.838 47.6602 120.404 47.6602C118.97 47.6602 117.808 48.8225 117.808 50.2563C117.808 51.6901 118.97 52.8525 120.404 52.8525Z" fill="#1FA45B"/>
<path d="M115.212 9.58293C116.645 9.58293 117.808 8.4206 117.808 6.98678C117.808 5.55296 116.645 4.39062 115.212 4.39062C113.778 4.39062 112.615 5.55296 112.615 6.98678C112.615 8.4206 113.778 9.58293 115.212 9.58293Z" fill="#1FA45B"/>
<path d="M32.1346 11.3134C33.5684 11.3134 34.7308 10.1511 34.7308 8.71725C34.7308 7.28343 33.5684 6.12109 32.1346 6.12109C30.7008 6.12109 29.5385 7.28343 29.5385 8.71725C29.5385 10.1511 30.7008 11.3134 32.1346 11.3134Z" fill="#1FA45B"/>
<path d="M6.17306 73.622C7.60687 73.622 8.76921 72.4597 8.76921 71.0258C8.76921 69.592 7.60687 68.4297 6.17306 68.4297C4.73924 68.4297 3.5769 69.592 3.5769 71.0258C3.5769 72.4597 4.73924 73.622 6.17306 73.622Z" fill="#1FA45B"/>
<path d="M77.9979 163.622C77.1813 163.622 76.4548 163.041 76.2986 162.21C76.1224 161.27 76.7414 160.366 77.6808 160.19L131.654 150.07V106.506C131.654 105.55 132.429 104.775 133.385 104.775C134.341 104.775 135.115 105.55 135.115 106.506V151.506C135.115 152.339 134.522 153.054 133.704 153.207L78.3191 163.592C78.2111 163.612 78.1038 163.622 77.9979 163.622Z" fill="#1FA45B"/>
<path d="M95.3073 115.16C94.7182 115.16 94.1602 114.858 93.84 114.346L76.5323 86.6539C76.2294 86.1686 76.1855 85.5649 76.4153 85.0409C76.6451 84.5168 77.119 84.1409 77.6812 84.0356L133.066 73.6507C133.766 73.5198 134.475 73.8307 134.853 74.4347L152.16 102.127C152.463 102.612 152.507 103.216 152.277 103.739C152.048 104.263 151.574 104.64 151.012 104.745L95.6272 115.13C95.5199 115.15 95.4133 115.16 95.3073 115.16ZM80.8118 86.9696L96.1495 111.51L147.88 101.811L132.543 77.2707L80.8118 86.9696Z" fill="#1FA45B"/>
<path d="M86.6539 77.083H69.3462C68.3904 77.083 67.6154 76.3079 67.6154 75.3522V66.6637C67.6154 64.6948 66.4845 62.9049 64.735 62.1035C53.087 56.7762 45.7229 45.0928 45.9742 32.3395C46.2989 15.8234 59.4555 2.05516 75.9262 0.994888C76.6206 0.950234 77.3236 0.927734 78.0156 0.927734C95.6701 0.927734 110.033 15.3045 110.033 32.976C110.033 45.4542 102.67 56.8873 91.2757 62.1035C89.5203 62.91 88.3846 64.7028 88.3846 66.6703V75.3519C88.3846 76.3083 87.6099 77.083 86.6539 77.083ZM71.0769 73.6214H84.9231V66.6707C84.9231 63.3552 86.8498 60.3274 89.8326 58.9573C100.002 54.3019 106.572 44.1042 106.572 32.976C106.572 17.2132 93.7614 4.38927 78.0156 4.38927C77.3974 4.38927 76.7687 4.4097 76.1484 4.4495C61.4587 5.3952 49.7248 17.6757 49.435 32.4077C49.2107 43.7816 55.7814 54.2022 66.1754 58.9559C69.1533 60.3194 71.0769 63.3448 71.0769 66.6637V73.6214Z" fill="#1FA45B"/>
<path d="M100.822 35.8778C99.8662 35.8778 99.0911 35.1027 99.0911 34.147C99.0911 28.3496 96.6539 22.7388 92.4041 18.7539C88.1063 14.724 82.5076 12.7131 76.6334 13.0905C65.7884 13.7883 57.1259 22.853 56.9123 33.7275C56.8936 34.6832 56.1148 35.4392 55.1479 35.424C54.1922 35.4053 53.4328 34.6153 53.4514 33.6596C53.7 21.0008 63.7852 10.4483 76.4111 9.63619C83.248 9.19726 89.7685 11.5376 94.7718 16.229C99.7166 20.8661 102.553 27.397 102.553 34.1473C102.553 35.1031 101.778 35.8778 100.822 35.8778Z" fill="#1FA45B"/>
<path d="M72.8077 39.8852C68.9903 39.8852 65.8846 36.7795 65.8846 32.9621C65.8846 29.1448 68.9903 26.0391 72.8077 26.0391C76.625 26.0391 79.7307 29.1448 79.7307 32.9621C79.7307 36.7795 76.625 39.8852 72.8077 39.8852ZM72.8077 29.5006C70.899 29.5006 69.3461 31.0534 69.3461 32.9621C69.3461 34.8708 70.899 36.4237 72.8077 36.4237C74.7164 36.4237 76.2692 34.8708 76.2692 32.9621C76.2692 31.0534 74.7164 29.5006 72.8077 29.5006Z" fill="#1FA45B"/>
<path d="M83.1923 39.8852C79.3753 39.8852 76.2692 36.7795 76.2692 32.9621C76.2692 29.1448 79.3753 26.0391 83.1923 26.0391C87.0093 26.0391 90.1154 29.1448 90.1154 32.9621C90.1154 36.7795 87.0093 39.8852 83.1923 39.8852ZM83.1923 29.5006C81.2836 29.5006 79.7308 31.0534 79.7308 32.9621C79.7308 34.8708 81.2836 36.4237 83.1923 36.4237C85.101 36.4237 86.6538 34.8708 86.6538 32.9621C86.6538 31.0534 85.101 29.5006 83.1923 29.5006Z" fill="#1FA45B"/>
<path d="M78 60.6555C77.0439 60.6555 76.2692 59.8805 76.2692 58.9247V32.9632C76.2692 32.0075 77.0439 31.2324 78 31.2324C78.9561 31.2324 79.7308 32.0075 79.7308 32.9632V58.9247C79.7308 59.8805 78.9561 60.6555 78 60.6555Z" fill="#1FA45B"/>
<path d="M78 163.621C77.8937 163.621 77.7871 163.611 77.6808 163.591L22.2962 153.207C21.4775 153.054 20.8842 152.339 20.8842 151.506V106.506C20.8842 105.55 21.6593 104.775 22.615 104.775C23.5707 104.775 24.3458 105.55 24.3458 106.506V150.069L76.2688 159.805V85.7366C76.2688 84.7806 77.0435 84.0059 77.9996 84.0059C78.9557 84.0059 79.7304 84.7806 79.7304 85.7366V161.89C79.7304 162.405 79.5012 162.893 79.1049 163.222C78.7923 163.482 78.4001 163.621 78 163.621Z" fill="#1FA45B"/>
<path d="M77.9979 149.776C77.1813 149.776 76.4548 149.196 76.2986 148.365C76.1224 147.425 76.7414 146.52 77.6808 146.345L133.065 135.96C134.005 135.783 134.909 136.402 135.086 137.342C135.262 138.282 134.643 139.185 133.704 139.362L78.3191 149.747C78.2111 149.767 78.1038 149.776 77.9979 149.776Z" fill="#1FA45B"/>
<path d="M78.002 149.777C77.8958 149.777 77.7892 149.767 77.6808 149.747L22.2962 139.362C21.3567 139.186 20.7378 138.282 20.914 137.342C21.0902 136.402 21.995 135.782 22.9341 135.96L78.3188 146.345C79.2582 146.521 79.8771 147.425 79.7006 148.365C79.5452 149.196 78.8183 149.777 78.002 149.777Z" fill="#1FA45B"/>
<path d="M60.6926 115.16C60.5867 115.16 60.4801 115.15 60.3735 115.13L4.98886 104.745C4.42636 104.64 3.95282 104.263 3.72298 103.739C3.49313 103.215 3.53709 102.612 3.83997 102.127L21.1477 74.4346C21.5253 73.8306 22.2339 73.5201 22.9345 73.6506L78.3191 84.0355C78.8813 84.1411 79.3548 84.517 79.5847 85.0407C79.8145 85.5645 79.7706 86.1685 79.4677 86.6538L62.16 114.346C61.8398 114.858 61.2818 115.16 60.6926 115.16ZM8.11982 101.811L59.8504 111.51L75.1882 86.9695L23.4572 77.2703L8.11982 101.811Z" fill="#1FA45B"/>
<path d="M22.6133 77.0825C21.7967 77.0825 21.0701 76.502 20.914 75.6702C20.7378 74.7307 21.3567 73.8262 22.2962 73.65L49.9885 68.4577C50.9269 68.2815 51.8325 68.9004 52.0086 69.8399C52.1848 70.7793 51.5659 71.6838 50.6265 71.86L22.9341 77.0523C22.8265 77.0728 22.7192 77.0825 22.6133 77.0825Z" fill="#1FA45B"/>
<path d="M133.387 77.0837C133.28 77.0837 133.174 77.074 133.065 77.0539L105.373 71.8616C104.434 71.6854 103.815 70.7809 103.991 69.8415C104.167 68.9017 105.072 68.2845 106.011 68.4593L133.704 73.6516C134.643 73.8278 135.262 74.7323 135.086 75.6717C134.93 76.5036 134.203 77.0837 133.387 77.0837Z" fill="#1FA45B"/>
<path d="M12.2308 149.775C11.275 149.775 10.5 149 10.5 148.044V120.352C10.5 119.396 11.275 118.621 12.2308 118.621C13.1865 118.621 13.9615 119.396 13.9615 120.352V148.044C13.9615 149 13.1865 149.775 12.2308 149.775Z" fill="#1FA45B"/>
<path d="M1.84613 156.698C0.890395 156.698 0.115356 155.924 0.115356 154.968V141.121C0.115356 140.165 0.890395 139.391 1.84613 139.391C2.80186 139.391 3.57689 140.165 3.57689 141.121V154.968C3.57689 155.924 2.80186 156.698 1.84613 156.698Z" fill="#1FA45B"/>
<path d="M143.769 149.775C142.813 149.775 142.038 149 142.038 148.044V120.352C142.038 119.396 142.813 118.621 143.769 118.621C144.725 118.621 145.5 119.396 145.5 120.352V148.044C145.5 149 144.725 149.775 143.769 149.775Z" fill="#1FA45B"/>
<path d="M154.154 156.698C153.198 156.698 152.423 155.924 152.423 154.968V141.121C152.423 140.165 153.198 139.391 154.154 139.391C155.11 139.391 155.885 140.165 155.885 141.121V154.968C155.885 155.924 155.11 156.698 154.154 156.698Z" fill="#1FA45B"/>
<path d="M86.6538 70.1608H69.3461C68.3904 70.1608 67.6154 69.3857 67.6154 68.43C67.6154 67.4743 68.3904 66.6992 69.3461 66.6992H86.6538C87.6099 66.6992 88.3846 67.4743 88.3846 68.43C88.3846 69.3857 87.6099 70.1608 86.6538 70.1608Z" fill="#1FA45B"/>
<path d="M17.4231 56.3136C12.6513 56.3136 8.76923 52.4314 8.76923 47.6597C8.76923 42.888 12.6513 39.0059 17.4231 39.0059C22.1948 39.0059 26.0769 42.888 26.0769 47.6597C26.0769 52.4314 22.1948 56.3136 17.4231 56.3136ZM17.4231 42.4674C14.56 42.4674 12.2308 44.7967 12.2308 47.6597C12.2308 50.5227 14.56 52.852 17.4231 52.852C20.2861 52.852 22.6154 50.5227 22.6154 47.6597C22.6154 44.7967 20.2861 42.4674 17.4231 42.4674Z" fill="#1FA45B"/>
<path d="M138.577 40.7366C131.897 40.7366 126.462 35.3017 126.462 28.6212C126.462 21.9408 131.897 16.5059 138.577 16.5059C145.257 16.5059 150.692 21.9408 150.692 28.6212C150.692 35.3017 145.257 40.7366 138.577 40.7366ZM138.577 19.9674C133.805 19.9674 129.923 23.8495 129.923 28.6212C129.923 33.393 133.805 37.2751 138.577 37.2751C143.349 37.2751 147.231 33.393 147.231 28.6212C147.231 23.8495 143.349 19.9674 138.577 19.9674Z" fill="#1FA45B"/>
</svg>
