<svg width="46" height="44" viewBox="0 0 46 44" fill="none" xmlns="http://www.w3.org/2000/svg">
<path d="M30.5 42.25H15.5C14.6715 42.25 14 41.5785 14 40.75V39.25H30.5C31.3285 39.25 32 38.5785 32 37.75V40.75C32 41.5785 31.3285 42.25 30.5 42.25Z" fill="#D7E6F0"/>
<path d="M30.5 42.25H15.5C14.6715 42.25 14 41.5785 14 40.75V39.25H30.5C31.3285 39.25 32 38.5785 32 37.75V40.75C32 41.5785 31.3285 42.25 30.5 42.25Z" fill="#A5C3DC"/>
<path d="M9.5 36.25C7.84316 36.25 6.5 34.9068 6.5 33.25V21.25C6.5 19.5932 7.84316 18.25 9.5 18.25C11.1568 18.25 12.5 19.5932 12.5 21.25V33.25C12.5 34.9068 11.1568 36.25 9.5 36.25Z" fill="#463C4B"/>
<path d="M3.5 33.25H6.5V21.25H3.5C1.84316 21.25 0.5 22.5932 0.5 24.25V30.25C0.5 31.9068 1.84316 33.25 3.5 33.25Z" fill="#FFD205"/>
<path d="M6.5 27.25H9.5V18.25C7.84316 18.25 6.5 19.5932 6.5 21.25V27.25Z" fill="#555A6E"/>
<path d="M3.5 27.25H6.5V33.25H3.5V27.25Z" fill="#FAA019"/>
<path d="M36.5 36.25C38.1568 36.25 39.5 34.9068 39.5 33.25V21.25C39.5 19.5932 38.1568 18.25 36.5 18.25C34.8432 18.25 33.5 19.5932 33.5 21.25V33.25C33.5 34.9068 34.8432 36.25 36.5 36.25Z" fill="#463C4B"/>
<path d="M42.5 33.25H39.5V21.25H42.5C44.1568 21.25 45.5 22.5932 45.5 24.25V30.25C45.5 31.9068 44.1568 33.25 42.5 33.25Z" fill="#FFD205"/>
<path d="M39.5 27.25H36.5V18.25C38.1568 18.25 39.5 19.5932 39.5 21.25V27.25Z" fill="#555A6E"/>
<path d="M42.5 33.25H39.5V27.25H42.5V33.25Z" fill="#FAA019"/>
<path d="M42.5 21.25H39.5V19.75C39.5 10.6518 32.0982 3.25 23 3.25C13.9018 3.25 6.5 10.6518 6.5 19.75V21.25H3.5V19.75C3.5 8.99772 12.2477 0.25 23 0.25C33.7523 0.25 42.5 8.99772 42.5 19.75V21.25Z" fill="#FAA019"/>
<path d="M30.5 39.25H15.5C14.6715 39.25 14 39.9215 14 40.75V16.75C14 15.9215 14.6715 15.25 15.5 15.25H30.5C31.3285 15.25 32 15.9215 32 16.75V37.75C32 38.5785 31.3285 39.25 30.5 39.25Z" fill="#23AAE6"/>
<path d="M19.4697 43.75C19.329 43.75 19.1941 43.6941 19.0947 43.5947L17.75 42.25L16.4053 43.5947C16.3059 43.6941 16.171 43.75 16.0303 43.75C15.7375 43.75 15.5 43.5125 15.5 43.2197V40.75H20V43.2197C20 43.5125 19.7625 43.75 19.4697 43.75Z" fill="#FAA019"/>
<path d="M23 34.75C27.1421 34.75 30.5 31.3921 30.5 27.25C30.5 23.1079 27.1421 19.75 23 19.75C18.8579 19.75 15.5 23.1079 15.5 27.25C15.5 31.3921 18.8579 34.75 23 34.75Z" fill="#5AD7FF"/>
<path d="M20.5757 22.75C20.6893 22.75 20.8005 22.7837 20.895 22.8467L26.3339 26.4726C26.5938 26.6459 26.75 26.9376 26.75 27.25C26.75 27.5624 26.5939 27.854 26.3339 28.0274L20.895 31.6533C20.8004 31.7163 20.6893 31.75 20.5757 31.75C20.2578 31.75 20 31.4923 20 31.1743V23.3256C20 23.0077 20.2577 22.75 20.5757 22.75Z" fill="#D7E6F0"/>
</svg>
