<svg width="44" height="32" viewBox="0 0 44 32" fill="none" xmlns="http://www.w3.org/2000/svg">
<path d="M2.95202 31.8405C7.12413 30.4253 14.9688 28.5873 21.5296 31.7625C21.8262 31.906 22.1738 31.906 22.4704 31.7625C29.0312 28.5873 36.8759 30.4253 41.048 31.8405C42.4426 32.3136 44 31.2942 44 29.8215V7.95945C44 6.76888 43.3007 5.67414 42.1671 5.31034C36.2289 3.40467 27.9092 3.57761 22.4033 5.82914C22.1443 5.93502 21.8557 5.93502 21.5967 5.82914C16.0908 3.57761 7.77112 3.40467 1.83294 5.31034C0.699313 5.67414 0 6.76888 0 7.95945V29.8215C0 31.2942 1.55737 32.3136 2.95202 31.8405Z" fill="#0EC7C1"/>
<path d="M38.815 25.9342C30.7662 25.2432 27.5063 26.895 22.9828 29.4449C22.3728 29.7888 21.6272 29.7888 21.0172 29.4449C16.4937 26.895 13.2338 25.2432 5.18499 25.9342C4.55509 25.9883 4 25.5278 4 24.9331V2.10551C4 1.11048 4.78304 0.261793 5.83629 0.164317C13.4134 -0.536929 16.6176 1.08313 21.017 3.56236C21.6271 3.90616 22.3729 3.90616 22.983 3.56236C27.3824 1.08313 30.5866 -0.536929 38.1637 0.164317C39.217 0.261793 40 1.11048 40 2.10551V24.9331C40 25.5278 39.4449 25.9883 38.815 25.9342Z" fill="#9FE9E6"/>
<path d="M21 3.55469C21.0057 3.55788 21.0113 3.56108 21.017 3.56427C21.6271 3.90807 22.3729 3.90807 22.983 3.56427C22.9887 3.56108 22.9943 3.55788 23 3.55469V29.4371C22.9943 29.4404 22.9885 29.4436 22.9828 29.4468C22.3728 29.7907 21.6272 29.7907 21.0172 29.4468C21.0115 29.4436 21.0057 29.4404 21 29.4371V3.55469Z" fill="#0EC7C1"/>
</svg>
