<svg width="40" height="33" viewBox="0 0 40 33" fill="none" xmlns="http://www.w3.org/2000/svg">
<path d="M2.23036 1.06359C1.16541 1.25347 0.432683 2.08672 0.314636 3.16612C0.162202 4.55996 0 6.9449 0 10.7832C0 14.6215 0.162202 17.0065 0.314636 18.4003C0.432683 19.4797 1.16541 20.313 2.23036 20.5028C3.17679 20.6716 4.59888 20.8562 6.66667 20.9806V23.4627C6.66667 24.4831 7.84234 25.0504 8.636 24.4129L12.7292 21.1255C17.6135 21.1008 20.4558 20.7803 22.0121 20.5028C23.077 20.313 23.8097 19.4797 23.9278 18.4003C24.0802 17.0065 24.2424 14.6215 24.2424 10.7832C24.2424 6.9449 24.0802 4.55995 23.9278 3.16612C23.8097 2.08672 23.077 1.25347 22.0121 1.06359C20.3923 0.774785 17.3795 0.439453 12.1212 0.439453C6.86292 0.439453 3.85008 0.774785 2.23036 1.06359Z" fill="#9EC6F1"/>
<path fill-rule="evenodd" clip-rule="evenodd" d="M15.8154 22.3586C19.6433 22.2415 22.051 21.9518 23.4953 21.6943C24.72 21.4759 25.5626 20.5177 25.6984 19.2764C25.8737 17.6734 26.0602 14.9308 26.0602 10.5167C26.0602 9.73764 26.0544 9.01064 26.0439 8.33278C26.6227 8.3234 27.2337 8.31836 27.8784 8.31836C33.1367 8.31836 36.1496 8.65369 37.7693 8.9425C38.8342 9.13238 39.5669 9.96562 39.685 11.045C39.8374 12.4389 39.9996 14.8238 39.9996 18.6621C39.9996 22.5004 39.8374 24.8854 39.685 26.2792C39.5669 27.3586 38.8342 28.1919 37.7693 28.3817C36.8228 28.5505 35.4007 28.7351 33.333 28.8595V31.3416C33.333 32.362 32.1573 32.9293 31.3636 32.2918L27.2705 29.0044C22.3861 28.9797 19.5438 28.6592 17.9876 28.3817C16.9226 28.1919 16.1899 27.3586 16.0718 26.2792C15.976 25.4027 15.8762 24.1341 15.8154 22.3586Z" fill="#0D70DC"/>
</svg>
