<svg width="40" height="42" viewBox="0 0 40 42" fill="none" xmlns="http://www.w3.org/2000/svg">
<path d="M33.3398 34.5296C36.834 31.0841 39 26.295 39 21C39 10.5066 30.4934 2 20 2C9.50659 2 1 10.5066 1 21C1 26.295 3.16595 31.0841 6.66019 34.5296C5.5148 37.6908 5 39.8916 5 39.8916C5 39.8916 5.08123 40.7617 6.39905 41.5194C7.71687 42.2771 8.51419 41.9121 8.51419 41.9121C8.51419 41.9121 9.98687 40.5391 11.9795 38.2292C14.4162 39.3654 17.134 40 20 40C22.866 40 25.5838 39.3654 28.0205 38.2292C30.0131 40.5391 31.4858 41.9121 31.4858 41.9121C31.4858 41.9121 32.2831 42.2771 33.6009 41.5194C34.9188 40.7617 35 39.8916 35 39.8916C35 39.8916 34.4852 37.6908 33.3398 34.5296Z" fill="#D2B5FB"/>
<path fill-rule="evenodd" clip-rule="evenodd" d="M12.4884 1.37676C7.44416 3.30027 3.33544 7.10439 1.0285 11.9269C0.37367 10.7669 0 9.42709 0 8C0 3.58172 3.58172 0 8 0C9.66356 0 11.2085 0.507762 12.4884 1.37676ZM38.9715 11.9269C36.6646 7.10439 32.5558 3.30027 27.5116 1.37676C28.7915 0.507762 30.3364 0 32 0C36.4183 0 40 3.58172 40 8C40 9.42709 39.6263 10.7669 38.9715 11.9269Z" fill="#8F47F6"/>
<path fill-rule="evenodd" clip-rule="evenodd" d="M20.0718 8C21.3867 8 22.4527 9.14532 22.4527 10.5582V18.9157C22.4527 19.1921 22.5549 19.4572 22.7368 19.6527L28.3027 25.633C29.2324 26.632 29.2324 28.2517 28.3027 29.2507C27.3729 30.2498 25.8654 30.2498 24.9356 29.2507L18.0561 23.1415C17.3292 22.4959 16.9385 21.5119 17.0079 20.5013L17.6909 10.5582C17.6909 9.14532 18.7568 8 20.0718 8Z" fill="#8F47F6"/>
</svg>
