<svg width="48" height="48" viewBox="0 0 48 48" fill="none" xmlns="http://www.w3.org/2000/svg">
<path d="M9 22.5H18C18.5912 22.5008 19.1767 22.3849 19.723 22.1591C20.2693 21.9332 20.7657 21.6018 21.1837 21.1837C21.6018 20.7657 21.9332 20.2693 22.1591 19.723C22.3849 19.1767 22.5008 18.5912 22.5 18V9C22.4993 7.0111 21.7089 5.10386 20.3025 3.69749C18.8961 2.29113 16.9889 1.50072 15 1.5H6C5.40882 1.49918 4.82329 1.615 4.27695 1.84086C3.73061 2.06671 3.2342 2.39815 2.81617 2.81617C2.39815 3.2342 2.06671 3.73061 1.84086 4.27695C1.615 4.82329 1.49918 5.40882 1.5 6V15C1.50072 16.9889 2.29113 18.8961 3.69749 20.3025C5.10386 21.7089 7.0111 22.4993 9 22.5V22.5Z" fill="#1FA45B"/>
<path d="M6 46.5H15C16.9889 46.4993 18.8961 45.7089 20.3025 44.3025C21.7089 42.8961 22.4993 40.9889 22.5 39V30C22.5008 29.4088 22.385 28.8233 22.1592 28.2769C21.9333 27.7306 21.6019 27.2342 21.1838 26.8162C20.7658 26.3981 20.2694 26.0667 19.7231 25.8409C19.1767 25.615 18.5912 25.4992 18 25.5H9C7.0111 25.5007 5.10386 26.2911 3.69749 27.6975C2.29113 29.1039 1.50072 31.0111 1.5 33V42C1.49921 42.5912 1.61507 43.1767 1.84094 43.723C2.0668 44.2693 2.39824 44.7657 2.81626 45.1837C3.23428 45.6018 3.73067 45.9332 4.27699 46.1591C4.82332 46.3849 5.40883 46.5008 6 46.5V46.5Z" fill="#1FA45B"/>
<path d="M42 1.5H33C31.0111 1.50072 29.1039 2.29113 27.6975 3.69749C26.2911 5.10386 25.5007 7.0111 25.5 9V18C25.4992 18.5912 25.6151 19.1767 25.8409 19.723C26.0668 20.2693 26.3982 20.7657 26.8163 21.1837C27.2343 21.6018 27.7307 21.9332 28.277 22.1591C28.8233 22.3849 29.4088 22.5008 30 22.5H39C40.9889 22.4993 42.8961 21.7089 44.3025 20.3025C45.7089 18.8961 46.4993 16.9889 46.5 15V6C46.5008 5.40882 46.385 4.82329 46.1591 4.27695C45.9333 3.73061 45.6019 3.2342 45.1838 2.81617C44.7658 2.39815 44.2694 2.06671 43.7231 1.84086C43.1767 1.615 42.5912 1.49918 42 1.5V1.5Z" fill="#1FA45B"/>
<path d="M39 25.5H30C29.4088 25.4992 28.8233 25.615 28.2769 25.8409C27.7306 26.0667 27.2342 26.3981 26.8162 26.8162C26.3981 27.2342 26.0667 27.7306 25.8409 28.2769C25.615 28.8233 25.4992 29.4088 25.5 30V39C25.5007 40.9889 26.2911 42.8961 27.6975 44.3025C29.1039 45.7089 31.0111 46.4993 33 46.5H42C42.5912 46.5008 43.1767 46.3849 43.723 46.1591C44.2693 45.9332 44.7657 45.6018 45.1837 45.1837C45.6018 44.7657 45.9332 44.2693 46.1591 43.723C46.3849 43.1767 46.5008 42.5912 46.5 42V33C46.4993 31.0111 45.7089 29.1039 44.3025 27.6975C42.8961 26.2911 40.9889 25.5007 39 25.5V25.5Z" fill="#1FA45B"/>
<path d="M42 1.5H33C31.0111 1.50072 29.1039 2.29113 27.6975 3.69749C26.2911 5.10386 25.5007 7.0111 25.5 9V18C25.4992 18.5912 25.6151 19.1767 25.8409 19.723C26.0668 20.2693 26.3982 20.7657 26.8163 21.1837C27.2343 21.6018 27.7307 21.9332 28.277 22.1591C28.8233 22.3849 29.4088 22.5008 30 22.5H39C40.9889 22.4993 42.8961 21.7089 44.3025 20.3025C45.7089 18.8961 46.4993 16.9889 46.5 15V6C46.5008 5.40882 46.385 4.82329 46.1591 4.27695C45.9333 3.73061 45.6019 3.2342 45.1838 2.81617C44.7658 2.39815 44.2694 2.06671 43.7231 1.84086C43.1767 1.615 42.5912 1.49918 42 1.5V1.5Z" fill="#1F64A4" fill-opacity="0.22"/>
<path d="M39 25.5H30C29.4088 25.4992 28.8233 25.615 28.2769 25.8409C27.7306 26.0667 27.2342 26.3981 26.8162 26.8162C26.3981 27.2342 26.0667 27.7306 25.8409 28.2769C25.615 28.8233 25.4992 29.4088 25.5 30V39C25.5007 40.9889 26.2911 42.8961 27.6975 44.3025C29.1039 45.7089 31.0111 46.4993 33 46.5H42C42.5912 46.5008 43.1767 46.3849 43.723 46.1591C44.2693 45.9332 44.7657 45.6018 45.1837 45.1837C45.6018 44.7657 45.9332 44.2693 46.1591 43.723C46.3849 43.1767 46.5008 42.5912 46.5 42V33C46.4993 31.0111 45.7089 29.1039 44.3025 27.6975C42.8961 26.2911 40.9889 25.5007 39 25.5V25.5Z" fill="#1F64A4" fill-opacity="0.22"/>
</svg>
